<svg version="1" xmlns="http://www.w3.org/2000/svg" width="833.333" height="833.333" viewBox="0 0 625.000000 625.000000"><path d="M159.4 33.5c-2.2 2.1-3 2.3-4.8 1.3-1.1-.7-3.9-1.2-6.2-1.2l-4.1-.1.5 4.7c.6 6.1-1 6.3-7.4.7-3.4-2.9-5.4-3.9-7.1-3.6-1.2.2-3.1-.2-4-.9-2.8-2.1-6.1-1.7-7.9 1-1.3 2.1-1.9 2.3-4.1 1.5-2-.7-3-.6-4.3.6-1.1 1-3.6 1.5-7.3 1.5-3.1 0-5.9.5-6.3 1.1-.4.8-3.1.9-8.3.5-4.2-.4-12.1-.2-17.6.4-9.5 1.1-10.4 1.4-16.8 5.8-3.8 2.6-9.3 6.1-12.4 7.8-3 1.7-8.2 5.5-11.6 8.5-3.3 3-7.3 6.3-8.8 7.4-1.5 1.1-5 4.7-7.7 8s-6.8 8-9.1 10.5c-4.3 4.7-5.4 9.3-2.6 10.4 1.7.6 2 3.6.4 3.6-.6 0-.9.7-.6 1.5.4.8.2 1.7-.3 2-.6.4-1 11.2-.9 26.8v26.2l10.9 5.3c13.7 6.6 21.1 9.2 26.7 9.2 4.4 0 4.6-.2 18.3-14.1 13.4-13.6 13.8-14.2 12.8-17-.5-1.6-1.4-2.9-1.9-2.9-1.6 0-6.1-4.9-5.4-5.9.7-1.2-3.8-9.8-6.7-12.8l-2.2-2.3 2-3.8c1.2-2.3 3.4-4.4 5.8-5.6 3.3-1.6 3.7-2.2 3.1-4.5-1.1-4.5-3-5.6-9.3-5.4-3.1 0-7.6.4-9.9.8-5.2.9-5.4-.1-1.3-4.8 3.1-3.6 9.9-7 16.2-8.1 3.7-.7 3.9-.5 6.8 4.1 1.6 2.6 3 5.2 3 5.8 0 2.3 3.9 4.7 8.1 5.1 4.8.4 6 1.1 4 2.3-.9.6-.4 1.4 1.9 3.2 1.8 1.3 4.4 3.5 5.9 4.9 1.4 1.4 4.2 3.7 6.1 5 1.9 1.3 4.6 3.5 6 4.7l2.5 2.3-3.4-1c-1.8-.5-4.3-2-5.5-3.3-1.3-1.4-3.4-2.8-4.7-3.1-1.3-.4-4.5-1.6-7.1-2.8-3.9-1.7-5-1.9-6.3-.8-.8.7-1.5 1.8-1.5 2.5 0 1.7 11.6 7.4 13.8 6.8 1.1-.2 3.2.6 5 2.2 3.6 3 4.2 5 1.2 4.2-3-.8-3.2.6-.5 4.4 2.1 2.9 3.6 3.8 9.6 5.3 5.6 1.4 7.9 2.7 11.7 6.2 4.5 4.3 9.2 5.8 10.7 3.4.3-.6 1.4-1 2.4-1s2.4-.6 3-1.4c1.5-1.8-.6-7.3-4.4-11.8-1.4-1.6-2.8-4-3.1-5.2-.3-1.3-1.9-2.9-3.7-3.7-2.4-1.1-3.4-2.3-4.2-5.5-.6-2.4-2.2-5.1-3.9-6.6-3.5-3-2.9-4.4 2.3-5.3 2.8-.5 4.9-.2 7.2 1 1.8 1 6.6 2.2 10.7 2.7 9 1.1 23.7 6 26.8 8.9 2 1.8 2.1 2.4.9 3.5-2 2.1-5.2 1.7-5.8-.6-.6-2.5-2.7-2.7-2.7-.2 0 2.3 6.2 12.2 7.5 11.9.5-.2 1.3-1.8 1.7-3.6l.9-3.2 3.2 2.6c1.8 1.4 3.9 3.2 4.8 4 .9.8 2.3 1.5 3.2 1.5 1 0 1.7.4 1.7.8s3.9.8 8.6.7c10.6-.1 11.7.5 8.1 4.3-4.2 4.3-3.4 5.7 1.6 2.7l4.4-2.5 1.1 2.6c.9 1.8.9 3.1.1 4.6-.8 1.5-.8 2.2.1 2.8 2.1 1.3-.1 5.7-4.2 8.4-4.5 2.9-7.6 3.3-8.4 1.1-.7-1.7-3.4-2.1-3.4-.5 0 .5-1.7 1.8-3.7 2.7-2.9 1.4-6.1 1.8-12.8 1.7-4.9-.1-10.1-.4-11.5-.8-2.2-.6-2.7-.2-3.9 2.6-.8 1.8-1.7 4.4-2 5.8-.5 2.1-1.3 2.6-5.6 3.1-2.8.3-6.7 1.3-8.7 2.1-3.5 1.6-3.9 1.6-8.5-.7-2.6-1.3-6.9-3.2-9.6-4.4-6-2.6-13.7-8-13.7-9.8 0-.7-1.9-2.6-4.2-4.3-3.5-2.6-5-3-10.5-3H82v2.9c0 3.4-4.1 11.7-6.7 13.7-1 .8-3 1.1-4.5.8-1.4-.3-2.9-.1-3.2.5-.4.6-1.4.7-2.3.4-1-.4-1.4-.2-1 .4 1 1.6-5.3 5.6-9.2 5.8-4 .2-9.1 2.5-11.8 5.4-1.7 1.7-4.3 3.2-10.6 6.2-3.1 1.4-9.2 11.2-8.4 13.3.9 2.4-3.3 9.4-6.9 11.5-2.1 1.3-3.4 2.8-3.4 4.1 0 1.1-.4 2-1 2-.5 0-1 1.6-1 3.6 0 2.2-.9 4.7-2.5 6.8-1.4 1.8-2.5 3.9-2.5 4.5C7 240.6 1.7 250 .8 250c-.5 0-.8 4.2-.8 9.4v9.5l2.8-.4c1.5-.2 3.3-.4 4-.4.6-.1 1.2-1.2 1.2-2.4 0-2.7 3.3-6.2 4.9-5.2.7.4 1.1-.5 1.1-2.3 0-2.2.6-3.1 2.1-3.5 1.3-.4 1.8-1 1.3-1.8-.4-.8-.3-1 .4-.5 1.8 1.1 1.5 7.3-.3 8-2.2.8-1.8 3.6.4 3.6 1.6 0 1.9.6 1.6 3.7-.1 2.1.2 4.1.8 4.5.8.5.8 1.3 0 3-1.3 2.9-.5 8.8 1.2 8.8.8 0 1.7.9 2 2 .9 2.8 1.6 2.5 4.3-1.3 2.6-3.9 2.7-4.7.7-4.7-1.9 0-1.9-1.4.1-3.1 1.1-.9 1.4-2.2 1-4.3-.6-3.5.9-6.9 2.2-4.9.4.7 1.3.9 1.9.5 1.8-1.1 6.4-10.5 5.9-11.9-.3-.7-.1-1.3.4-1.3.6 0 1-.8 1-1.9 0-1 .7-4.2 1.7-7 1.3-4.2 1.9-5 3.5-4.6 2.6.9 2.3 0-1.4-4.1-1.9-2-3.4-4.9-3.5-6.5-.2-1.6-.1-2.9.2-2.9 1.5 0 6.4 2.8 8.3 4.8 2.6 2.7 4.3 2.2 2.1-.5-.8-1-2.3-3.5-3.3-5.6-1.7-3.2-1.7-4.1-.6-6.1.7-1.4 1-3.1.8-3.8-.9-2.3 2.5-8.3 4.9-8.6 1.3-.2 2.5-1.5 3.3-3.5 2.6-7.4 3.4-8.2 8-8.8 4.5-.7 9 .9 9 3.1 0 .5 1.4 2.9 3 5.3 1.7 2.5 3 5.3 3.1 6.3.1 4.3 6.1 15.4 8.2 15.4 1.2 0-.1-14-1.4-15.6-.6-.7-.8-1.8-.4-2.4.4-.6.7-2.6.7-4.5 0-4 2.8-7 5.8-6.2 1.2.3 2.3-.1 2.9-1.1.8-1.3 1.2-1.4 2.5-.3.9.7 1.6 2.1 1.6 3.1 0 4.9 8.1 6.9 12.1 2.9 1-1 2.3-1.9 2.9-1.9.5 0 1.2-1.1 1.6-2.5.5-2 1.2-2.5 3.9-2.5 1.9 0 3.7-.5 4-1 1.1-1.8 3-1.1 10 4 8.2 5.9 9.3 7.5 7.1 9.9-1.9 2.1-2 3.5-.4 6.1 1.8 2.8.3 3.6-4.5 2.1-6.1-1.9-11.7-2.5-12.8-1.4-.6.6 1.5 4.1 5.8 9.4 3.7 4.7 7.3 9.4 7.9 10.5 1.7 3.1 9.4 6.6 12.9 5.8 6-1.4 13.5.1 13.5 2.6 0 .6-1.6 1-3.5 1s-3.5.3-3.5.6c0 1.7 8.2 9.9 12.8 12.7 5.2 3.1 12.2 10.8 12.2 13.3 0 .6 1 1.4 2.3 1.8 1.3.3 4.1 1.7 6.3 3.2 2.1 1.5 5.7 2.9 7.9 3.2 2.2.3 5 1.2 6.3 2 1.3.9 4.2 1.4 6.7 1.4 2.8-.2 4.7.3 5.2 1.1 1.4 2.4 4.8 3.6 10.1 3.5 5.1-.1 6.6-1 3.7-2.2-1.9-.7-2-2.6-.1-2.6.8 0 1.4-1 1.4-2.3.2-6.3.8-11.3 1.5-12.5.6-.9-.2-1.2-3.2-1.2-5.4 0-5.6-2.5-.3-4 3.3-.9 3.9-.8 5.1 1 .7 1.1 2 2 2.7 2 1.7 0 1.8-1.2.2-2.8-2.2-2.2 3.5-3.3 8.9-1.6 2.6.8 6.9 1.9 9.4 2.4s7 2 10 3.3c3 1.4 6.3 2.8 7.5 3.1 1.2.4 2.6 1.8 3.3 3.3 1.5 3.3.3 4.3-5.6 4.3-3 0-4.3.4-4.3 1.4 0 .8-.7 1.6-1.5 2-.8.3-1.5 1.2-1.5 1.9 0 .8-1.1 1.9-2.5 2.5-2.3 1-3 2.3-2.6 4.4 0 .5-.7.8-1.7.8-2.6 0-3.4 1.1-2.1 2.6.8 1 .5 1.5-1.5 2-4.5 1.1-1.7 2.7 3.7 2 3.5-.5 6.5-.2 10.1 1 8.4 2.7 13 4.7 14.6 6.1 1.2 1.1.9 1.3-2.2 1.3-6.5 0-5 1.7 2.7 2.9 7.7 1.3 10.2 2.9 9.1 5.8-.6 1.5-.5 1.6.6.5 1-1 1.5-.9 2.8.8 1.6 2.2 8 3.9 8 2.1 0-.5-.6-1.2-1.2-1.4-.8-.3-.6-.6.5-.6.9-.1 1.7.3 1.7.7 0 .5 2.3 1.6 5.1 2.5 7.9 2.6 9.6 2.2 6.2-1.6-1.7-1.8-1.7-1.9.7-1.6 2 .3 2.5.9 2.3 3.1-.1 2.3.3 2.9 2.5 3.4 1.5.3 3.5.9 4.4 1.5 1 .5 2.8.9 4 .9 1.7 0 1.9-.3 1-1.2-.7-.7-1.2-1.9-1.2-2.8 0-.8-1.4-2.1-3-2.9-3.3-1.4-3.5-3.4-.5-3.9 3-.6 6.6 1.9 5.9 4-.4 1.4 0 2.1 1.5 2.5 1.4.3 2.1 1.3 2.1 2.9 0 1.9.5 2.4 2.4 2.4 1.3 0 3.5.9 4.9 2 1.4 1.1 3.2 2 4.1 2 2.4 0 4.2 4.5 2.7 6.4-1.6 1.9 0 2.9 3.2 2 2.9-.7 4.7 1.3 2 2.2-5.2 1.6-6.6 2.5-5.5 3.6 1.1 1.1 7.2.1 15.9-2.6 2.5-.8 4.7-.9 5.7-.4.9.5 2.3.5 3.5-.2 1.1-.5 3.2-1 4.7-1 2.1 0 2.4.3 1.5 1.4-.9 1.1-.8 1.5.5 2 2.1.8 2.1.8 2.7-1.3.5-1.9.6-1.9 4-.3 2.7 1.3 3.7 2.5 4.2 5.2.4 1.9 1.2 4.1 1.7 4.8.6.7.8 1.5.4 1.9-1.1 1.1 3.6 5.3 6 5.3 2.1 0 2.2.3 1.4 3.2-1.6 5.3-.5 7.2 5.3 9 4.9 1.4 5.2 1.7 5 4.7-.1 2.5.3 3.1 1.5 2.9 1-.2 1.6-1.2 1.5-2.5-.2-1.4.8-2.6 3.2-3.9 3.2-1.7 3.5-1.7 5.3-.1 1.9 1.7 4.8 2.2 7.6 1.1.9-.3 1.4-1 1.1-1.5-.3-.4.8-1.5 2.5-2.4 1.6-.8 3-2.1 3-2.8 0-.6.8-.1 1.6 1.3 2.8 4.3 18.1 15 24.4 17l4.5 1.4-6.4 1.2c-4.2.8-6.9 1.9-7.8 3-.7 1.1-1.7 2.4-2.3 3.1-1.9 2.2-1 2.5 6.1 1.8 6.6-.7 7.1-.6 7.6 1.4.5 2.1 3.4 2.8 6.7 1.5 1.5-.6 1.5-.8-.1-1.9-2.6-1.9-.9-2.9 2.7-1.7 3.6 1.3 13 .4 13-1.2 0-.7 1.6-1.8 3.5-2.5s3.5-1.6 3.5-2.1c0-1.3 6.9-7.8 12-11.3 2.5-1.6 7.3-6 10.7-9.7 4.3-4.7 6.8-6.6 8.5-6.6 1.7.1 2.3-.4 2.3-2 0-1.1.8-2.8 1.8-3.8 2.1-2.1 2.1-3 .1-6.1-1.4-2.1-1.4-2.6 0-5.4 2.1-3.9 2-4.4-.4-3.6-2.3.7-2.5.2-1-2.6.6-1 2-1.9 3.1-1.9s2.1-.6 2.3-1.3c1.8-6.9 4.3-13 5.4-13.5.9-.3 2.3.6 3.4 2.1 1.6 2.2 2.3 2.5 3.8 1.7 2.8-1.5 3.1-1.3 2.5 1.7-.6 2.6-.5 2.6.8 1 1.8-2.1 4.1-2.3 3.3-.1-.3.9-.6 1.8-.6 2 0 .2-.8.4-1.8.4s-2.9 1.2-4.3 2.6c-1.3 1.4-3.6 3.2-5.1 4-3.5 1.8-5.1 4.9-4.4 8.1.4 1.3 3.2 5.3 6.4 8.8 10 11.1 12.7 14.5 14 17.8.8 1.8 2.3 4.2 3.5 5.4 3.3 3.7 1.3 3.6-3.5 0-2.5-1.9-6.3-4.1-8.4-4.8-2.1-.7-4.3-1.6-4.9-2-1.4-1-8.3-1.5-9.1-.6-.4.4.5.7 2 .7 2.4 0 2.7.3 2.4 2.7-.3 2.6-.7 2.9-6.7 3.8-3.5.5-6.6 1.5-6.8 2.1-.6 1.8 3.9 2.5 6.2 1 3.5-2.2 6.6-2.6 7.2-.9.4.9-.1 2.1-1 2.8-2.7 1.9-2.1 2.2 3.9 2 4.2-.2 5.4 0 5 1.1-.3.7.4 2.4 1.5 3.8 1.1 1.3 1.5 2.7 1 3-1.1.7 1.5 9.9 2.9 10.4.6.2 1 1.1 1 1.9 0 1-.6 1.3-1.7 1-7.6-2.5-16.8-4.7-17.7-4.3-.6.3-.1.8 1.2 1.1 3.6 1.2 2.6 2.8-1.3 2.1-4.5-.9-4.7 1-.2 1.9 4.5 1 7.7 3.2 7.7 5.4 0 1.1.9 2.1 2.3 2.5 2.1.6 2.1.7.3 1.7-1.9 1.2-6.5.8-16.6-1.2-9.8-1.9-15.3-2.2-14.5-.9.4.7 1.7.9 3.1.6 1.7-.5 2.9 0 4.1 1.4.9 1.1 3.6 2.2 6 2.6 2.4.3 4.5 1 4.8 1.4.3.5 1.3.7 2.3.5.9-.2 4.5-.9 8-1.6 3.4-.6 6.2-1.6 6.2-2 0-1.5 2.8-1 3.4.6.7 1.8-2.3 3.5-6.3 3.5-1.6 0-3.6.6-4.3 1.3-2.4 2.3-6.4 4.5-8.9 4.9-2.4.5-2.3.6 2.6 2.3 1.9.7 1.9.8-.4 1.8-1.9.9-2.6.8-3.5-.5-1.3-1.8-7.9-5.2-12-6.2-2.5-.6-8.6.8-8.6 2 0 .9 8.1 8.4 9 8.4.6 0 1.3.7 1.6 1.5.5 1.2 1.2 1 3.6-1 4.7-4 6.3-3.3 2.8 1.2-1.1 1.4-2 3.3-2 4.2 0 1 2.4-.8 6.2-4.7 3.3-3.4 6.7-6.2 7.5-6.2 1.8 0 1.7 2.6-.2 3.4-.8.3-1.2 1.2-.9 2 .4.9-.5 2-2.3 3-4.4 2.2-5.7 4.1-3.9 5.5 1.5 1.3 1.6 1.2 7.3-5.3 2-2.3 3.2-.4 1.3 1.9-1 1.2-1 1.8 0 3 1.3 1.6.5 3.7-1.3 3.3-.7-.1-2.2.3-3.3 1-1.9 1-2.3.9-2.7-.8-.7-2.7-3-1.7-4.3 1.9-1 2.6-.9 2.7 1.3 2.3 3.1-.6 2.9.8-.5 4.1-1.9 1.8-3.5 2.5-4.5 2.1-1-.3-2.9.2-4.5 1.2-1.5 1-5.6 3.3-9.2 5.2-3.6 1.9-7 4-7.6 4.8-1.4 1.8-10.7 3.9-11.2 2.5-.6-1.8-5.4 1.4-10.5 6.8-2.6 2.9-4.7 5.6-4.7 6.1 0 1.8 1.8 1 3.7-1.5 1.1-1.5 4.3-3.3 8.3-4.6 3.6-1.3 8.8-3.3 11.7-4.7 2.9-1.3 5.6-2.1 6.2-1.8.5.4 1.2-.2 1.5-1.2.4-1.3 1.7-1.8 4.3-1.9 2.7-.1 4.4-.9 6.5-3.2 1.6-1.7 3.4-3.1 4.1-3.1.7 0 3.1-1.9 5.5-4.1 4.8-4.7 6.2-4.6 3.7.1-1.6 3-1.6 3.2.4 3.7 1.6.4 1.8.9 1.1 2.3-.5 1-1.9 2-3 2.3-1.1.3-1.8.1-1.4-.4 1-1.7-1.1-.8-3.9 1.6-2.6 2.3-2.7 2.7-1.4 5.1 1.2 2.4 1.5 2.5 2.9 1 .9-.9 1.8-2.1 2.1-2.8.3-1 .9-1 2.5-.1 1.1.6 3 .9 4.3.6l2.4-.6-2.2 2.5c-1.3 1.3-2.3 2.9-2.3 3.4 0 .6-.7 1.9-1.6 3-1.3 1.6-1.5 1.6-1 .2.3-1 .1-2-.4-2.3-.5-.3-.6-1.3-.3-2.3.6-1.5.5-1.5-1-.3-1 .7-1.7 1.9-1.6 2.5.1.6.1 1.7 0 2.3-.1 1.4-8.9 7.3-10.8 7.3-1.8 0-1.6-3.5.3-5.1 1.3-1 1.7-1 2.4.2.8 1.1 1.6.8 4.2-1.9 3.1-3 3.1-3.2 1-3.2-1.2 0-2.2.4-2.2 1 0 .5-.4 1-.9 1s-.7-1.8-.5-4c.2-2.2.1-4-.2-4-.8 0-9.7 9.4-11.1 11.9-2 3.3-1.5 3.7 1.3 1l2.7-2.4-.7 3c-.8 3.6-4.4 6.7-8.5 7.1-4 .5-4.6-.8-1.6-3.6 5.3-4.9 1.5-5.4-8.1-1-5.1 2.4-6.9 2.8-8 1.9-1.5-1.2-9.1-.5-16.2 1.7-5.2 1.5-7.4 1-6.4-1.6.4-1 5.3-5.8 11-10.6 6.3-5.4 10.9-10.1 11.7-12.1 1.3-3 4.5-4.7 4.5-2.3 0 1.7 2 1.1 4.3-1.4 2.7-2.9 8.3-5 9.3-3.4.7 1.2-2.2 3.8-4.2 3.8-.6 0-1.7.7-2.4 1.5-1.7 2.1.8 2 3.8 0 1.2-.9 3.8-1.7 5.7-1.9 2.8-.2 4.5-1.2 7.1-4.1 4-4.5 4.3-6 1.2-5.1-1.3.4-4 1-6.1 1.3-2.1.3-4 1-4.3 1.4-.6 1-8.8 1.2-9.7.2-.4-.3.1-1.5 1-2.6 1.5-1.7 1.6-2 .2-1.5-.9.4-4.1.9-7.3 1.3-3.9.5-6 1.3-6.6 2.5-.9 1.7-.7 1.8 1.9 1 2-.6 3.5-.4 4.7.5 1.6 1.1 1.4 1.5-2.6 3.4-5.8 2.8-11 2.8-11.7.1-.4-1.6-1.1-1.9-2.7-1.4-2.9.8-5.1 3.1-5.1 5.2 0 1-.9 1.8-2.2 2-1.6.2-2.3-.2-2.3-1.3 0-1.4-.7-1.6-4.2-1-2.4.4-5.1 1.2-6.1 1.7-2.9 1.5-.8 3.1 3.5 2.5 2.7-.4 3.8-.2 3.5.6-.2.7-2.1 1.4-4.3 1.7-2.1.3-4.6 1-5.4 1.5-1.2.8-.9 1.1 1.5 1.5l3 .6-3.7 1.8c-2 .9-4.4 2.6-5.4 3.7-1.2 1.3-3 1.9-6.2 1.9-4.4 0-4.5 0-2.7-2 1-1.1 2.8-2 4-2 2.6 0 4.5-1.8 4.5-4.2 0-2.2-1.8-2.3-4.4-.3-2.5 1.9-4.2 1.9-2.7.1.9-1.1.9-1.5 0-1.8-1.3-.4 6-5.8 8-5.8.6 0 2.5-.7 4.2-1.5 3.1-1.7 3.1-3.5-.2-3.5-1 0-1.9-.5-1.9-1.1 0-.5-.4-.7-1-.4-.5.3-1 1.7-1 2.9 0 2.6-2.2 3.6-7.5 3.6-2.8-.1-2.9-.1-1.1-1.5 1.5-1.1 1.6-1.5.5-1.9-3-.9-10.5-1.3-12.4-.5-1.9.7-1.9.8.3.8 3.7.1 2.5 1.8-2.5 3.5-6.1 2.1-6.4 2-2.8-.9 3.5-2.9 2.8-4.1-1.7-2.7-1.8.6-5.5 1.4-8.2 1.8-6.1.8-5.5-.9.9-2.5 2.6-.6 4.9-1.9 5.5-3.1.6-1.1 2.1-2 3.3-2 3.5 0 6.7-1.1 6.1-2.1-.7-1.2-5.1-1.1-7.5.2-1.1.5-4 1.6-6.4 2.4-4.2 1.2-4.4 1.2-3.5-.6.6-1 1.9-2.4 3-3.2 2.1-1.5 1.7-2.9-.6-2-.8.3-1.4-.1-1.4-1s-.8-2.1-1.7-2.6c-1-.6-1.4-1.1-.9-1.1.5 0 .3-.6-.3-1.4-1-1.2-.7-1.8 1.3-3.1 5-3.3 2.9-3.9-12.4-3.6-4.9.1-5.3-.1-3.7-1.3 1.8-1.4 1.8-1.5-.4-1.8-3.5-.5-3.3-2.3.6-4.1 1.9-.9 3.5-2.3 3.5-3.2 0-1.6-2.5-2.1-3.5-.6-.3.6-2.6 2.4-5.1 4.1-4 2.7-4.7 2.9-6 1.5-1.4-1.3-1.3-1.5.6-1.5 1.3 0 2-.5 1.7-1.3-.2-.6-1.1-1-1.8-.8-.8.2-2.2.6-3.1.8-2.8.8-2.2-3.1.7-4.7 1.8-.9 2.3-1.9 1.9-3.2-.7-2.3.5-2.3 2.1-.1 1.2 1.6 1.6 1.6 6-.6 3.9-1.9 4.9-2.1 5.6-1 .5.8.9 1.7.9 2.1 0 1 5.9-.2 9.3-1.9 2.7-1.4 2.8-1.6 1.2-3.3-2.4-2.6-5.8-2.9-10.1-.8-4.4 2.1-6.9 1.8-10.3-1.3-3.4-3.2-1.5-4.2 6.2-2.9 6.2 1 9.7.6 9.7-.9 0-1.7-2.7-3.1-6.1-3.1-2.1 0-4.1-.5-4.5-1.1-.3-.6-1.9-.9-3.4-.5-2 .3-3 .1-3.4-1-.4-1-1.3-1.3-3-.8-1.3.3-2.7.1-3-.5-1.6-2.5-10-.5-12.6 2.9-1 1.3-4.9 3-6.9 3-2.4 0-2.8-1.8-.6-2.6.8-.4 1.5-1.2 1.5-2s.9-1.4 1.9-1.4c2 0 3.7-1.7 2.7-2.7-.3-.3-2.5-.8-5.1-1-4.6-.6-5.9-1.9-2.7-2.9 5.7-1.8 6.3-2.3 5.2-4.4-1-1.8-.8-2 1.9-2 1.6 0 3.3.4 3.6 1 1.1 1.7 4.5 1.2 3.8-.6-1.1-2.8-5.1-3.6-10.1-1.8-2.6.9-6.8 1.6-9.4 1.5-3.7-.1-4.8.2-4.8 1.4 0 .9 1.2 1.8 3 2.1 1.6.4 2.7 1.1 2.4 1.6-.3.5-1.2.7-1.9.4-.8-.3-1.8.1-2.4.8-.7.8-2.4 1.6-4 1.9-3.8.8-11.1 4-11.1 4.9 0 .4 1 1 2.3 1.4 1.9.6 1.6.9-2.7 2.4-5.2 1.7-8 4.5-6 5.8.7.4 1.3 1.6 1.5 2.7.6 2.7 3.7 3.1 6.2.7 2.4-2.3 7.7-4.6 7.7-3.4 0 .4-1.4 1.6-3 2.5-2.5 1.5-2.9 2.3-2.4 4.3.4 1.7.1 3.1-1.1 4.4-1.7 1.9-1.7 2 .3 2 1.1 0 2.3-.4 2.6-.9.6-1 13.2-7.1 14.6-7.1.6 0 1 1.6 1 3.5 0 4.3 1.4 4.4 5.5.7 1.6-1.6 4.8-3.4 7-4 2.7-.8 4.6-2.1 5.8-4.2 2.5-4.2 6.7-3.8 5.1.4-.5 1.3-.9 1.4-2.1.4-1.1-.9-1.6-.9-2.3.2-.6.9-.5 1.7.2 2.1 1.2.7-2.1 2.9-4.4 2.9-2.2.1-10.8 6.9-10.8 8.6 0 1.6 1.1 1.6 5.3-.1 1.6-.7 1.7-.4 1.1 2l-.7 2.8 5.3-.6c3-.4 5.7-1.2 6.1-1.8.4-.7 1.2-.8 2.3-.2 1.5.8 1.2 1.3-2.1 3.6-2.2 1.5-4.4 2.7-5 2.7-.7 0-1.4.4-1.7.8-.3.5 1 .9 2.9 1 1.9.1 3.7-.3 4-.8.3-.6 1.3-1 2.1-1 1.1 0 1.3.6.9 2.2-.6 1.7-.4 2 .9 1.5 5.3-2.2 5.2-2.2 3.7-.4-2.3 2.9-.5 3.2 8.6 1.4 4.8-.9 8.9-1.4 9.2-1.2.2.3-.6 1.5-1.8 2.6-2.2 2-6.2 2.9-14.8 3.3-2.5.1-2.9.4-2 1.4 1.5 1.9-.8 3.2-5.5 3.2-2.7 0-3.8-.4-3.8-1.5 0-.8-.7-1.5-1.5-1.5-1.6 0-6.7 2.1-7.5 3.1-.7.9-7 4-7 3.5 0-.3 2.1-2 4.7-3.8 3.5-2.4 4.3-3.4 3.1-3.6-1-.2-1.8-1-1.8-1.8 0-2-4.6-1.8-5.4.2-.5 1.3-.9 1.4-2 .5-.8-.7-2.2-1.1-3.2-.9-1.4.2-1.8-.5-1.9-3.5-.1-2-.5-4-.8-4.3-.3-.4-2.4.8-4.6 2.5-3.7 2.9-4.3 3.1-9.7 2.5-4.3-.5-5.8-1.1-6.1-2.5-.4-1.5-.9-1.7-2.6-.7-1.6.8-2.3.7-3.4-.8-1.5-2-.3-3.4 3-3.4.9 0 1.7-.5 1.7-1 0-.6-.5-1-1.1-1-.6 0-.8-.8-.5-1.8.4-1.3-.2-2-2.9-2.8-1.9-.6-3.6-.8-3.7-.4-.2.4-2.1 1-4.3 1.3-3.3.5-4.5.2-7-1.8-3.6-3-2.8-4.2 1.3-2.1 1.7.9 3.8 1.3 4.6 1 2.9-1.1 1.6-2.4-2.3-2.4-2.2 0-4.4-.6-5.1-1.5-.7-.8-2.5-1.5-4.1-1.5-1.6 0-2.9-.5-2.9-1.1 0-.7 1.1-.9 3-.6 1.6.4 3.2.2 3.5-.2.9-1.6-4.3-4.1-11.7-5.7-14.6-3.2-16.3-3.9-16.6-6.8-.3-2.3-.6-2.5-1.8-1.5-1.1.9-2.1.9-3.8.1-3.8-1.7-11.2-2.5-13.2-1.4-1.3.7-3.1.6-5.7-.3-5.6-1.9-7.8-1-7.5 3.1.3 4.2-.9 5.5-2.8 3-1.2-1.7-1.4-1.8-1.4-.3 0 .9.4 1.7.8 1.7.5 0 1.5 1.9 2.3 4.2 1.8 5.5 8 12 11.1 11.7 1.3-.1 4.9.6 8.1 1.5 4.5 1.4 6.1 1.5 7.2.6 2.6-2.1 7.6 0 13.6 5.7 4.6 4.4 5.9 6.3 6.4 9.6.4 2.3 1.3 5.2 2.1 6.4.8 1.2 1.4 2.9 1.4 3.8 0 .8 1.2 2 2.6 2.5 2.2.9 2.4 1.3 1.4 2.5-1.1 1.3-.1 1.5 8.3 1.1 5.3-.2 9.7 0 9.9.4.2.4 3 1.1 6.3 1.5 3.3.3 6.1.8 6.3 1 .8.7-8.7 6.7-12.3 7.6-2.2.6-5.5 1.9-7.4 3-2.6 1.5-3.6 1.7-4.7.8-1.8-1.5-12.1.2-23.2 3.8-4 1.3-8.1 2.3-9.1 2.3-.9 0-2.8 1.1-4.1 2.5-1.8 1.9-2.6 2.2-3.7 1.3-1.6-1.3-1.6-1.3-3.3 3-1.1 3-1.4 3.1-2.9 1.8-1-.9-3.8-1.7-6.4-1.9-3.9-.4-5-.1-5.8 1.5-.9 1.6-1.7 1.8-5 1.3-5.1-.9-6.1 1.3-2.5 5.6 3.6 4.2 3.3 5.7-1.1 6.4-2.1.3-6.5 1.4-9.8 2.4-3.3 1.1-7.3 2.2-9 2.6-1.6.3-3.6 1.6-4.3 2.7-1.7 2.3-6.3 1.9-9.5-.9-1.1-1.1-3.7-1.8-6.5-1.9-6.2-.2-6-.1-6.7-2.3-.4-1.3-1.9-2.2-4.5-2.6-5.3-.9-6-3.4-2.3-8 3-3.8 5.7-4.4 8.9-2 4.1 3.1 8.5.6 4.6-2.6-2.8-2.2-2.8-2.9.1-2.9 1.9 0 2.2-.5 2.4-4.6.1-2.6.7-5.8 1.3-7.3 1.2-2.9 4.6-5.5 6-4.6 1.3.8 1.3 5.2 0 6-1.9 1.2-1.1 4.2 1.1 4 2.3-.2 4.8-3.8 4.9-6.9 0-1.9 0-1.9 1.4-.1.8 1.1 1.2 2.5.9 3.1-1 2.6 1.7 2.2 6.3-1.1 5.9-4.2 7.8-4.5 7.2-1-.8 4.1 4.5 2.8 8.9-2.3 2-2.2 2.5-2.3 3.9-1.1 1 .8 2 1.4 2.3 1.3 2.2-.3 4 1.2 4.3 3.5.2 2 .8 2.5 2.3 2.3 1.1-.2 3.2-.5 4.6-.6 1.4-.2 3-.5 3.5-.8.5-.3 3.3-.9 6.2-1.3 2.8-.4 5.2-1 5.2-1.4 0-.4 1.1-1.3 2.5-1.9 1.4-.6 2.5-1.5 2.5-1.9-.2-2.8-15.1-8.5-16.5-6.4-1 1.8 3.5 4.3 7.5 4.3 2.8-.1 4 .3 3.7 1.1-.2.7-1.1 1.1-2 .9-.9-.1-3.5.6-5.9 1.8-5.9 2.9-7.7 2.6-8.5-1.1-.5-2.6-1.5-3.6-5.7-5.5-2.8-1.3-6.1-2.4-7.3-2.4-1.3 0-2.3-.4-2.3-.9 0-1.8-4.1-2.3-5.8-.8-.9.8-2.4 1.2-3.2.9-1.3-.4-1.3-.3-.1 1.1.7 1 2.4 1.7 3.7 1.7 2.8 0 3.2 2.1.8 4.4-2 2-5.2 2.2-3.5.3 1.3-1.7.5-2.7-2.2-2.7-1.4 0-1.7-.5-1.3-1.7.9-2.3-1.1-3.3-6.6-3.3-4.5 0-4.7.1-5 3.1-.4 4.2-3 5.9-5.5 3.6-1.5-1.3-2.6-1.5-5.4-.7-4.9 1.4-6.6 3-7.6 7-.8 3.1-1.4 3.6-5.1 4.4-3.7.8-4.6.6-6.5-1.3-1.3-1.1-3-2.1-3.8-2.1-.8 0-2-.5-2.7-1.2-.9-.9-1.5-.9-2.4 0-1.8 1.8-2.5 1.5-3.1-1.6-.3-1.5-.9-3.5-1.2-4.5-.5-1.2-.2-1.7.9-1.7.9 0 1.6.5 1.6 1.2 0 .6.9.3 2-.7s2-2.4 2-3.2c0-1.5-2.6-1.8-3.5-.3-.9 1.5-3.5 1.2-3.5-.5 0-2-3-3.4-6.1-2.8-2 .4-2.7 0-3.2-1.6-.3-1.2-1.2-2.1-2.1-2.1-1.7 0-2.2 1.5-.7 2.5.6.3.4 1.7-.4 3.3-.8 1.5-1.6 3.5-1.9 4.4-.9 3.1-2.6 2-2-1.2.6-2.5.3-3.1-2-4-4-1.5-4.6-1.3-4.6 1.5 0 1.4-.4 2.5-1 2.5-1.3 0-7 5.7-7 7 0 1.5 6.1 5 8.8 5 2.3 0 2.6.4 3.6 5.2.5 2.2 1.2 2.8 3.2 2.8 2.9 0 4.4 2.8 2.2 4.4-3.7 2.7-3 5 3.2 10.9 5.1 4.9 5.9 6.2 5.4 8.2-.6 2.3-.4 2.5 3.4 2.5 2.2 0 4.7.3 5.5.6 2.3.8 1-3.2-1.9-6.3-1.3-1.4-2.4-3.1-2.4-3.8 0-.6-1.4-2.4-3-4-1.7-1.6-3-3.3-3-3.9 0-.5-.8-1.8-1.7-2.8-1.5-1.7-1.5-2.1-.3-2.9 3.2-2 6.3-2.2 7.6-.4.7 1 2 1.5 2.8 1.2 1.8-.7 3.1.9 1.5 1.8-.6.4-.8 1.8-.4 3.4.4 1.4.8 3.3 1 4.1.6 2.5 3.5 7.7 5 9 3.2 2.7.5 7.8-3.4 6.5-1.6-.5-2.3.1-3.5 2.8-.8 1.9-1.9 3.8-2.5 4.1-.6.4-1.1 1.9-1.1 3.4 0 3.7-1 5-4.4 5.4-2.4.2-3.2 1-4.3 4.2-1.3 3.9-.7 5.5 2 5.6 1.6 0 6.1-5.6 8.5-10.3 1.8-3.5 2.9-4.6 5-4.9 2.4-.3 2.7-.7 2.7-4 0-4.6 1.2-5.8 2.4-2.5.8 2 1.9 2.7 4.8 3.2 9.6 1.6 9.9 1.8 8.9 8.9-.5 3.1-1.7 5.4-4.1 7.9-2.7 2.8-3.5 4.4-3.5 7.4 0 4.5-1.3 6.8-3.3 6-1.5-.6-2.9-8.1-2.1-11.3.3-1.1 0-3.3-.6-4.9l-1.2-3-1.3 3c-1.1 2.6-1.4 2.7-2 1.2-.5-1.1-.2-2.4.8-3.5s1.3-2.3.8-3.1c-1-1.6-3.1-.6-3.1 1.5s-3 7.7-4.6 8.7c-1.8 1-4 5.3-4.9 9.5-.4 1.8-1.8 4.5-3.1 5.9-2 2.1-2.6 2.4-3.9 1.3-1.9-1.6-2.5-1.1-3.5 3.6-.8 3.6 0 6.4 1.9 6.4.4 0 1.8-1.9 3.1-4.3 2.3-4.1 3.7-5.7 5.2-5.7.4 0 .5.6.2 1.3-.3.8.2 2 1.1 2.7 1.3 1.1 1.5.9 1.5-.9 0-1.1.6-2.1 1.3-2.1 2.6 0 6.7 2.5 7.4 4.5.5 1.7.7 1.6 1.5-1.2 1-3.9 6.4-7.6 9-6.2 1.5.8 1.8.6 1.8-1.5 0-2 .6-2.6 3.3-3.1 2-.4 4.3-.1 6 .8 2.6 1.3 3.2 1.3 7.8-.9 4.5-2.2 4.9-2.7 4.9-5.8 0-1.9.4-3.8 1-4.1 2.3-1.4.7-4.1-3.6-6.5-3.9-2.2-4.8-3.3-6.5-8-2.6-7.5-2.6-7.3-.7-7.8 2.8-.6 8.8 2.8 9.4 5.4.7 2.7 3.2 3.2 4 .9 1-2.4 3.4-1.8 3.4.9 0 1.7 1.1 3.1 3.8 4.7 4.3 2.7 5.2 3.7 4.5 5.5-1.1 3 4.8 8.4 9.2 8.4 2.4 0 1.8-4.6-1.1-7.5-2.3-2.3-2.5-3.2-2-6.7.4-2.4.2-4.6-.5-5.4-1.6-1.9-.2-3.4 3.1-3.4 2.2 0 2.9-.5 3.2-2.2.5-3.8 4.8-5.4 10.9-4.1 3 .6 6.5.7 8.1.2 2-.5 4-.3 6.6.8 4.1 1.7 21.5 1.9 27.2.3 6.9-2 13.8 5.3 7.8 8.1-7 3.2-8.3 4.4-8 7.2.2 1.5.8 2.7 1.3 2.7s.9.4.9.9c0 .4-1.1.6-2.5.3-2.7-.5-3.2.7-1.3 2.6.6.6 1 1.4.7 1.6-.3.3-4.7 1.1-9.9 1.7-5.2.7-11.1 2-13.2 3-3.9 2-10.8 8.7-10.8 10.5 0 1.5-1.8 2.2-10 4.3-5.8 1.4-6.5 1.9-7 4.4-.6 3.2-6.5 7-12.4 8-4.7.8-6.6 2.3-6.6 5.3 0 2.8-.5 2.9-4 .9-3.7-2.1-4.3-1.8-3.8 1.5s-.6 3.8-3.6 1.5c-2.7-2-3.8-.9-3 3 .9 5-1.1 5.1-5.9 0-2.4-2.5-5-4.5-5.8-4.5-1.7 0-6.9 4.6-6.9 6.1 0 .6-.9.8-2 .4-1.5-.5-2.8.2-4.8 2.2-6.3 6.7-11.5 10.7-14.2 10.9-1.5.1-3.7.5-4.8.8-1.6.5-2.5 0-3.8-1.9-1.6-2.5-1.6-3-.1-7.8 1.8-5.7 1.6-6.8-1-4.5-2.2 1.9-13 6.8-15 6.8-.7 0-2.5.8-3.9 1.7-2.1 1.3-3 1.4-4.5.5-2.7-1.7-3.3-1.5-5.2 1.8-1.4 2.3-1.6 3.4-.7 5 .6 1.2.8 3.1.4 4.3-.4 1.2-.6 4.4-.4 7.2.4 7.6.4 7.8-.4 10.2-.7 2.1-.4 2.3 3.4 2.3 3.2 0 4-.3 3.8-1.6-.5-2.5 7.1-4.3 20-4.7 6.7-.3 11.8-.9 12.5-1.6.6-.6 2.9-1.1 5.2-1.1 2.3 0 4.6-.5 5.2-1.1 1.1-1.1 8.2-3.3 18.3-5.5 3.6-.8 7.7-2.3 9.2-3.4 1.5-1.1 3.3-2 4.1-2 1.2 0 5.6-2 18.6-8.3 2.4-1.2 5.7-3.7 7.5-5.5 1.7-1.9 5.2-4.4 7.8-5.8 2.6-1.3 6.1-4.2 7.9-6.4 1.8-2.2 5.1-4.9 7.5-6 4.3-2.1 4.3-2.1 8.1-.1 5.9 3 7.3 4.4 7.9 7.6.3 1.6 1.1 3.3 1.7 3.7.7.5.3.8-1.2.8-1.7 0-2.2.4-1.7 1.6.3.9.6 1.8.6 2.1 0 .3.8-.1 1.8-.8 1.6-1.3 1.6-1.2.3.4-2.1 2.7-2.1 5.6 0 6.8 1.1.5 1.6 1.6 1.3 2.4-.4 1.1.1 1.5 1.6 1.5 1.8 0 2 .3 1.1 1.4-1.2 1.5-.6 6.2 1 7.2.5.3 1.8.3 2.8-.1 1.3-.4 1.8-1.2 1.4-2.8-.4-1.7-.3-1.9.6-.7.8 1.2 1.2 1.3 2.3.2 1.1-1.1.8-1.8-1.7-3.8-1.6-1.3-2.4-2.4-1.7-2.4s1.1-.4.7-.9c-.3-.5-.1-1.2.5-1.6.5-.3 1-1.1 1-1.6 0-.6-.4-.8-.9-.5-1.1.7-2.6-1.1-3.8-4.9-.5-1.7-1.5-3.1-2.1-3.1-2.7-.3-2.5-.7 1.1-1.8l3.8-1.2-2.1-2.7-2.1-2.7h2.9c2.6 0 2.9.3 2.4 2.7-.4 2.3-.2 2.5 1.7 2 1.2-.3 3.5.1 5.1 1 1.6.8 3.4 1.2 3.8.9.7-.4.9 5 .3 9.6-.1.4-.8.5-1.6.2-1.7-.7-4.5 1.2-4.5 3 0 .6.4.4 1-.4.8-1.2 1-1.2 1.6.4.4 1.1.2 2.1-.6 2.6-.9.6-.3 1.8 2.5 4.4 2 2 4.1 3.6 4.6 3.6s.9.6.9 1.3c0 .7 1.7 2 3.8 2.9 3.3 1.4 3.9 2.1 3.9 4.7v3.1l-2.5-2.2-2.5-2.3.7 2.8c.5 2 .3 2.7-.4 2.2-1-.6-.5 3.6.7 5.8.2.4 8.1.7 17.5.7s16.8-.3 16.5-.6c-.3-.4-.2-1.5.4-2.5.7-1.4.5-2.5-.6-4.2-.8-1.3-1.5-3.4-1.4-4.8.1-1.3-.4-4.8-1-7.8-1.3-6.3 0-20 2.5-26.8 1.3-3.2 1.5-6.9 1.2-16.5-.4-11-.7-12.9-3.1-17.8-2.2-4.3-2.8-6.8-2.7-11.5.1-3.3-.1-9.2-.5-13-.7-7-.7-7 3-12 2.7-3.5 3.8-5.8 3.7-8.2-.1-2.5.6-3.9 3.7-6.5 4.4-3.8 6.8-9.3 4.5-10.2-.8-.3-1.4-1.9-1.4-3.6 0-2.3.6-3.3 2.5-4 3.3-1.2 10.5.3 11.7 2.4.5.9 1.5 1.6 2.2 1.6.7 0 2.4.9 3.8 1.9 1.3 1.1 3.7 2.3 5.1 2.6 3.4.9 4.2 2.2 2.7 4-1.3 1.6-1.4 1.6 5 3.4 6.3 1.8 12.5 4.2 14 5.6.8.7 2.9 1.6 4.6 1.9 1.7.4 4.4 2.1 6.1 3.9 3.2 3.4 15.8 8.7 20.6 8.7 1.4 0 2.9.5 3.3 1.1.3.6 2.7 2 5.3 3.1 2.5 1 5 2.6 5.4 3.4.4.8 1.7 1.4 2.8 1.4 1 0 2.8.5 3.8 1.2 1.4.8 2.6.9 4.2.2 3-1.4 6.6.5 9.9 5.1 2.9 4 5.8 4.5 8.6 1.4s7.4-5.2 11.9-5.4c2.2-.2 5.5-.6 7.3-1 2.6-.6 3.2-.4 3.2.9 0 1.2 1 1.6 3.8 1.6 3 0 4.5-.7 7.2-3.5 1.9-2 4-3.3 4.7-3.1 1.4.6 4.9-3.8 5.4-6.9.3-1.2 1.2-2 2.4-2 1.5 0 2.1.8 2.3 3.3l.3 3.3 3.5-3.1c1.9-1.6 4.5-3.1 5.7-3.1 7.1-.5 8.2-.2 8.5 1.7.7 4.6 1.3 6.4 2.1 6.4 1.5 0 4.2-3.1 3.6-4.1-.4-.5 0-.9.8-.9.7 0 2.3-1.3 3.4-2.8 1.2-1.6 3.7-3.6 5.6-4.6 2.5-1.1 3.9-2.7 4.7-5 1.3-4 4.7-5.7 17-8.1 14.3-2.9 26.5-9.1 34.7-17.6 9.8-10.3 8-25-4.3-35.6-3-2.6-7.6-7.6-10.2-11.3-4.2-5.6-6.4-9.1-11.9-18.5-.7-1.1-2.6-4.8-4.3-8.3-1.7-3.5-3.8-6.6-4.6-6.9-.8-.3-1.4-1.2-1.4-2 0-.7-1.1-2.4-2.4-3.6-3.4-3.2-3.5-4.7-.4-8.7 7-9.3 20.6-35.1 24.5-46.5 4.1-12 7.3-28.2 7.2-36.4-.1-8.8-.3-9.6-4.8-14.6-3.7-4.3-6.1-4.7-14.1-2.6-4.8 1.3-9.2 4.2-15.6 10.4l-4.2 3.9-5.1-1.1c-2.9-.6-7.4-1.1-10.1-1.1-2.7 0-5.2-.4-5.5-1-.3-.5-1.3-3.5-2-6.5-3.1-11.6-9.9-21.8-17.6-25.9-6.4-3.6-18.2-6.7-22.3-5.9-1.7.3-5.5 1.2-8.4 2-6.1 1.7-8.1.9-6.3-2.5 1.5-2.9 1.4-3-1.4-2.4l-2.6.4.7-6.6c.5-5.1.3-7.6-1.1-11.1-1.1-3-1.7-7.6-1.8-13.1 0-8.8-.6-10.4-2.7-7.9-1.4 1.7-4 2-4 .6 0-.5 1.1-2.3 2.5-3.9 2.9-3.5 3.1-4.8.9-5.6-1.3-.5-1.1-1.1 1.2-4.1 2.7-3.6 2.5-4.8-.3-2-2.5 2.6-3.4 1.3-3.7-5.5-.3-6.9-3.6-15.4-7.5-19.3-.6-.6-1.1-2.6-1.1-4.5 0-2.4-.8-4.2-2.9-6.2-1.6-1.6-3.1-3.6-3.5-4.5-.3-.8-2.6-2.8-5.2-4.3-2.5-1.5-10.6-8.7-17.9-16-7.3-7.2-13.8-13.2-14.5-13.2-.6 0-3.1-1.9-5.6-4.3-2.5-2.3-7.3-5.7-10.7-7.5-3.4-1.8-10-5.7-14.7-8.7-8-5-18.8-9.4-23.4-9.6-1.2 0-4.3-1.2-7.1-2.7-4.3-2.3-5.1-3.3-5.6-6.4-.8-5-2.4-6.6-9.4-9.9-3.3-1.5-7.5-4.1-9.3-5.8-3.9-3.6-6.4-4.8-22.8-10.6-17.1-6-29.6-7.9-52.9-7.9-11.3 0-20.6.5-23 1.2-15.4 4.4-19.8 5.3-26 5.4-13.4.2-27.2-6.1-38.6-17.5-3.8-3.7-7.3-6.7-7.8-6.7-.6 0-2.2 1.1-3.7 2.5zM79.2 65.1c.3.8 4.6 1.1 13.5 1 8.5-.1 13.4.2 13.8.9.4.6 4 1 9.3.9 5-.1 11.5.5 15.4 1.5 6.4 1.5 13.4 4.5 14.7 6.3 1.4 1.9 11.2 8.5 11.9 7.9.3-.4.1-2.1-.6-3.8-1.3-3.5-.9-4.8 1.7-4.8 3.7 0 10.5 10.7 9.9 15.7-.3 2.5-.7 2.8-4 2.7-3.6-.1-4.9.8-2.8 2.1 1.1.7.8 10.5-.3 10.5-.5 0-3.6-1.1-7-2.5-3.4-1.3-9.3-3.1-13.1-4-3.9-.9-8.3-2.6-9.9-3.7-3.7-2.6-12.5-4.8-19.8-4.8-5.9 0-10.7-2.1-7.5-3.3 3.3-1.3 1.4-2.4-5.1-3.1-15.8-1.5-16-1.6-16-4.3 0-3.2-.4-3.4-4.2-2.7-1.9.4-2.8 1-2.1 1.4.6.4-.5 1-2.7 1.3-2.8.5-4.8.1-7.6-1.4-3.2-1.6-5-1.9-9.8-1.3-5.3.6-5.9.5-5.9-1.2 0-3 1.2-4.1 5-4.9 8.3-1.6 14.9-3.8 14.4-4.7-.4-.6 0-1.4.7-1.9 2-1.2 7.7-1.1 8.1.2zm6.3 32.4c3.7 3.8 4.4 5.5 2.1 5.5-1.5 0-7.6-6.4-7.6-8 0-1.9 2-1 5.5 2.5zm111.3 1.8c1.2 2.4 1.1 3.1-.2 5.3-2.4 3.5-5.3 3.1-7.3-1.1-1.6-3.3-1.6-3.6.2-5.5 2.5-2.7 5.7-2.2 7.3 1.3zm-17 6.4c-.5 2.5-2.8 2.8-2.8.4 0-1.2.6-2.1 1.6-2.1.9 0 1.4.7 1.2 1.7zM43 145.6c0 .8-.7 1.4-1.5 1.4-1.5 0-2.1-2.1-.9-3.3 1-.9 2.4.2 2.4 1.9zm365.9 29.7c1 2.5 4.1 4.4 8.6 5.1 1.7.3 5.7 1.6 9 3 4.4 1.9 7.1 2.4 10 2.1 2.2-.3 4.7-.1 5.5.4 1.3.9 1.2 1.3-.5 3.1-1.8 1.7-2.4 1.9-5.2.8-2.6-1-3.8-.9-6.7.5-2 1-5.3 2.5-7.3 3.4-6.4 2.7-6.8 3-7.1 4.6-.2 1.1.2 1.4 1.7 1 1.2-.3 2.1-.1 2.1.6 0 .6-.7 1.1-1.5 1.1s-1.5.9-1.5 2c0 1.8.5 1.9 4.5 1.3 3-.4 4.5-.2 4.5.5 0 1.9-4.1 3.4-7.5 2.8-2.6-.5-3.6-.3-4.3 1-.6 1.1-1.6 1.5-2.6 1.1-1.4-.5-1.5-1.1-.6-2.7 1.1-2 1-2-3 .1-2.3 1.2-5.5 2.3-7.3 2.5-4.3.5-10 2.7-11.2 4.2-1.1 1.3-4.2 3.3-8.5 5.3-1.4.6-4.7 1.3-7.5 1.5-2.7.3-7.5 1.6-10.5 3.1-10.9 5.2-12.4 5.8-13.4 5.4-.6-.2-3.1-.4-5.6-.6-5.6-.4-14.5-2.7-18.7-4.9-2.2-1.1-5.2-1.5-8.9-1.4-6.4.3-8.9-1.7-3.5-2.8 1.7-.4 3.1-1 3.1-1.5s.9-.9 2-.9 2 .7 2 1.5c0 1.3.7 1.5 3.5.9 2.5-.4 4.1-.2 5.3.8.9.9 3.5 1.8 5.8 2.1 2.3.2 5.7 1.2 7.7 2.2 4.4 2.1 5.8 1.4 5-2.5-.6-3.4 1.5-4.3 2.4-1 .8 3.1 2.3 2.3 1.7-.9-.5-2.3-.2-2.9 1.5-3.4 1.4-.3 2.1 0 2.1.9 0 .8.5 1.4 1.1 1.4 2.3 0 4.9-2.2 4.9-4 0-1.1.4-2 1-2 .5 0 1.9-1.8 3-3.9 1.6-3.2 2.6-4 5.1-4.3 2.2-.2 3.3-.9 3.5-2.1.3-2.2 1.4-3.6 1.4-1.9 0 2 3.9 1.3 5.1-.9.8-1.6.8-2.7-.2-4.5-1.6-3.1-2.7-3-6.4.5-1.9 1.9-4.9 3.3-8.4 4-3 .6-5.4 1-5.5.9-.1-.2-.6-1.3-1.3-2.4-1-1.8-.8-2.5 1.1-4.3 3-2.9 4.2-1.4 1.4 1.7l-2.3 2.5 4.4-.7c2.4-.4 5.3-1.2 6.5-1.9l2.1-1.2-2.2-.3c-1.2-.2-2.7-1-3.4-1.8-1.3-1.6-.3-2.7 5.8-6.1 2.5-1.3 3.5-1.5 4.4-.6 1 1 .6 1.5-1.6 2.3-2.1.8-2.5 1.4-1.7 2.2.9.9 1.8.8 3.7 0 1.4-.7 3.5-1.2 4.6-1.2 1.1 0 3.2-1.2 4.6-2.6 2.7-2.7 12.7-6.4 17.4-6.4 1.5 0 3.1-.4 3.4-1 .4-.6-1.1-.7-3.9-.4-5.3.8-6.4-.9-1.8-2.7 1.5-.6 3.4-1.5 4.2-1.9 2.6-1.5 4-1.1 4.9 1.3zm-21.9 3.1c0 .8.3 2.1.6 3 .4 1.1 0 1.6-1.3 1.6-2.8 0-3.3-.9-2.1-3.6 1.2-2.6 2.8-3.2 2.8-1zm65.3 2c.3.8.3 1.7 0 2-.7.7-3.3-1.3-3.3-2.5 0-1.5 2.7-1 3.3.5zm-4.3 3.1c1.5.8 3 2 3.2 2.7.7 2.1-.3 4.8-1.8 4.8-1.7 0-2.7-1.7-1.4-2.5 1.6-1-.8-3.5-3.1-3.5-1.1 0-1.9-.7-1.9-1.5 0-1.9 1.3-1.9 5 0zm-87.7 6.7c-2.2 2.4-3.3 2.3-3.3-.5 0-3.5 2.1-5.2 3.7-3.1 1.1 1.5 1 2.1-.4 3.6zm-12.1 14c-.6.6-1.6.7-2.2.3-.9-.6-.9-.9.1-1.6 1.7-1 3.4 0 2.1 1.3zm-159.1.7c8.2 1.8 20.9 6.2 20.9 7.1 0 .6 1 1 2.3 1 1.3 0 5 .9 8.3 1.9 3.2 1 9 2.6 12.9 3.5 11 2.6 13.8 4.4 14.9 9.8 1.2 6.1.4 7.8-3.6 7.8-1.8 0-5.2.9-7.6 2-2.3 1-5 1.7-6 1.4-1.2-.4-1.3-.3-.4.3 1 .8 1 1.2-.3 2.3-1.1.9-1.4 2.2-1 3.7.5 2.2.3 2.3-4.4 2.3-4.9 0-5 0-13.3-9-4.6-4.9-10.4-10.6-13-12.7-2.7-2.1-4.8-4.3-4.8-5.1 0-.9-.5-1-1.7-.4-2.3 1.2-3.8.6-9.2-3.2-3.2-2.3-6.1-3.4-11.4-4.1-7.7-1.1-9.4-2.5-8.3-6.8.6-2.7 3.8-3.8 5.1-1.7.4.6 1.2.7 1.8.3 1.4-.9 10.6-2.1 12.7-1.7.8.2 3.6.8 6.1 1.3zm170.9.9c0 .5-.6 1.7-1.4 2.8-1.2 1.5-1.7 1.6-2.7.7-1-1-.9-1.5.1-2.8 1.3-1.6 4-2.1 4-.7zm64.5 4.2c-.3.5-1.1 1-1.6 1-.6 0-.7-.5-.4-1 .3-.6 1.1-1 1.6-1 .6 0 .7.4.4 1zm-3.5.8c0 .9-4.4 3.2-5.8 3.2-1-.1 3.8-4 4.9-4 .5 0 .9.4.9.8zm-260 1.7c1.6 1.9.6 4.5-1.8 4.5-3.1 0-4.6-2.5-2.7-4.4 2-2 2.9-2 4.5-.1zm271.9 11.7c2.6 2.7 3.4 5.3 2.7 8.3-.6 2.2-1 2.4-5.9 1.8-12-1.2-13.7-2.7-9-7.9 4.5-4.9 9-5.8 12.2-2.2zm-24.4 2.2c1.7 1.2 1.8 1.7.6 3.9-1 1.8-1.2 5.4-.9 12.6l.4 10.1-2.3-2.8c-2.4-2.8-8.7-15-9.8-18.9-.5-1.8 0-2.7 2.7-4.3 3.9-2.3 6.7-2.5 9.3-.6zm-43.8.2c-.3.3-1.2.4-1.9.1-.8-.3-.5-.6.6-.6 1.1-.1 1.7.2 1.3.5zM255.8 228c.4 0 1.3 1.4 2.1 3 1.2 2.9 1.5 3 3.5 1.7 4.2-2.8 10-3 14.8-.7 2.3 1.2 5 2.8 5.8 3.5.8.7 3.9 1.5 6.8 1.8 3.1.4 8.8 2.3 13.7 4.7 4.7 2.2 9.1 4 10 4 .8 0 5.7 1.4 10.9 3 9 2.9 12.5 5.3 13.8 9.2.3.7 1 .7 2.5-.2 1.7-1.1 3.3-.9 10.4 1.5 4.6 1.5 10 3.5 11.9 4.5 1.9 1 8 3.3 13.5 5.2 5.5 1.9 13.4 4.6 17.5 6.1 12.4 4.3 28.3 10.4 31.5 12.1 1.7.9 3.6 1.6 4.3 1.6.8 0 3 .8 5 1.7l3.6 1.7 2-2.9c11.3-15.7 14-18.3 15.7-15.2 1.4 2.4 3 1.1 2.3-1.8-.5-1.9.3-3 4.8-6.6 4.5-3.6 10.4-6.9 12.3-6.9.3 0 .5.6.5 1.4 0 .7.7 1.9 1.5 2.6 1.9 1.6 2 10.3.1 11.9-.7.6-1.6 2.5-2 4.2-.4 2.2-1 3-2.1 2.6-.8-.4-2.1 0-2.9.8-1.2 1.3-1.6 1.2-2.7-.1-.7-.8-2.5-2.2-4.1-3-3.3-1.7-5.5-.7-8.1 3.7-1.2 2.2-2.3 2.9-4.8 2.9h-3.2l.9 4.2c1.4 7.1.7 23.6-1.2 27.1-.8 1.8-2.2 5.2-3.1 7.7-2.4 7.4-7.2 9.2-11.8 4.5-3.3-3.2-3.6-11.9-.5-15.8 1.1-1.4 2-3.4 2-4.5 0-1.2.4-3.2.9-4.5.8-1.9 1.5-2.3 3.5-2 3 .6 3.6-1.3.7-2.2-1.1-.3-2.1-1.6-2.3-2.8-.3-2.1-.3-2.1-2.8.5l-2.5 2.8-2-3c-1.2-1.8-2.9-3-4.2-3-1.2 0-2.5-.5-2.8-1-.9-1.4-2.5-1.2-2.5.3s3 3.2 7.1 4.1c2.9.6 4.6 5.1 2.7 7.3-.5.6-1.1 2.7-1.3 4.5-.6 4.5-3 6.1-8 5.2-4.8-.8-4.2-.3-5-3.9-.7-2.9-.7-2.9.9-1 1.7 2 1.7 2 1-.5l-.6-2.5 2.6 2.4c1.5 1.4 2.6 1.9 2.6 1.2s.6-1.1 1.4-.8c.9.4 1.6-.3 2-1.9.7-2.7.3-3.7-2.6-6.9-1-1.1-2.4-2.9-3.2-3.9-1.2-1.8-1.4-1.8-3.7-.3-3.8 2.7-7.4 2.2-10.3-1.5l-2.5-3.2-.6 2.7c-.4 1.5-1.4 2.7-2.4 2.7-2.3.1-4.6 2.2-4.6 4.4 0 1.1-1 2.2-2.4 2.7-2.2.9-2.3.7-1.6-1.8.3-1.6 1.2-3.5 1.9-4.3.9-1.1 1-2.8.2-7-1-5.1-1.3-5.5-3.7-5.2-3.5.4-5.2-1.8-3.9-5.2 1-2.8.2-3.1-5.9-2.6-1.6.1-2.1-.2-1.5-1.1.5-.9.2-1-1-.6-1 .4-2.2.7-2.7.7s-.9.4-.9 1c0 .5.9 1 2 1 1.3 0 2 .7 2 2 0 2.1-3.5 2.9-4.2.9-.2-.7-1.2-.7-3.1 0-3.6 1.4-7 1.4-6.2.1.3-.6-.4-1.1-1.7-1.1-10.9-.6-12.2.7-4.9 4.7 3.7 2 5.6 3.8 7.1 6.9 2.7 5.6 2.6 6.7-.7 5.9-6.1-1.5-18.3-7.7-18.3-9.3 0-1-.6-2.3-1.2-3-1.1-1-.9-1.5.6-2.6 1.6-1.3 1.7-1.8.6-4.4-.6-1.6-.9-3.4-.6-3.9.3-.5-.1-1.8-.9-2.8-1.7-2.3-1.9-5.1-.3-5.6.6-.2-.6-2.1-2.7-4.2l-3.9-3.9-1.8 2.3c-1 1.2-1.8 3.5-1.8 5.1 0 1.6-.5 2.9-1.2 2.9s-.5.7.5 1.7c1.7 1.9 1.9 10.6.3 13.2-1.7 2.7-19.6-2.2-19.6-5.3 0-.7-1.1-2.3-2.5-3.6-1.4-1.3-2.5-3.2-2.5-4.3 0-1 1.1-3.2 2.5-4.9 2.9-3.5 3.2-6 .8-8.4-1-.9-1.7-2.7-1.5-3.8.1-1.5-.8-2.6-3.3-3.8-3.6-1.8-6.5-1.5-6.5.6 0 .7-.8 2.1-1.8 3.2-2.8 3-3.3 5.4-2 9.1 1 2.9 1 3.6-.2 4.4-1.3.8-1.3 1 0 1.9 1.3.8 1.2 1-.2 1-1 0-1.8-.5-1.8-1 0-.6-1.4-1-3.1-1-9.1 0-14.3-13.3-7.2-18.6 1.4-.9 1.5-1.6.7-2.4-.9-.9-2-.8-4.5.5-6.3 3.3-16.9 0-17.7-5.5-.2-1.3-.9-2.9-1.5-3.6-.7-.6-2.1-2.4-3.1-3.8s-2.4-2.6-3.1-2.6c-1.4 0-2.5-2.2-2.5-4.7 0-1 .6-1.3 1.6-.9.9.3 1.9.6 2.2.6zm43.2 1.4c0 .9-3 1.4-3.5.6-.4-.6.3-1 1.4-1 1.2 0 2.1.2 2.1.4zm71.3 3.4c3.3 1.5 4.7 2.7 4.7 4.2 0 1.1-.4 2-.9 2-1.9 0-7.1-3.6-7.1-4.9 0-.8-.8-2-1.7-2.8-2.1-1.7-1.5-1.5 5 1.5zm7.7-1.3c.7.9 1.1 1.8.8 2-.9 1-3.8-.7-3.8-2.1 0-1.8 1.4-1.8 3 .1zm-14.8 8.7c-.9.9-1.5.9-2.4 0-.9-.9-.7-1.2 1.2-1.2s2.1.3 1.2 1.2zm139.2 21c1.6 2.2 2.3 5.8.9 4.4-1-1-4.3 6.3-4.3 9.5 0 1.6-.7 3.2-1.7 3.8-1.4.7-1.9.3-3-2.7-1.8-5.1-1.6-6 1.3-8.7 1.4-1.3 2.4-2.8 2.1-3.2-.7-1.1 1.1-5.3 2.2-5.3.5 0 1.7 1 2.5 2.2zm-58.4.8c0 .5-.4 1-.9 1-.6 0-1.3-.5-1.6-1-.3-.6.1-1 .9-1 .9 0 1.6.4 1.6 1zm69.9.9c3 2.3 2.4 5.6-1.9 10.3-3.2 3.5-4.1 2.4-1.4-1.8 1.5-2.3 1.5-2.6 0-4.3-1.7-1.8-2.1-4.3-.9-5.4 1-1 1.6-.8 4.2 1.2zm-30.9 1.2c0 .5-.4.9-1 .9-.5 0-1-.7-1-1.6 0-.8.5-1.2 1-.9.6.3 1 1 1 1.6zm-9.7 24.1l2.1 2.8-6.5 6.2c-8.2 7.9-14.1 17.5-18.4 30.3-.6 1.7-.9 1.4-2-1.9-1.3-3.7-1.3-4 1.1-5.8 1.3-1.1 2.4-2.8 2.4-3.9s.5-1.7 1-1.4c.6.4 1-.7 1-2.5s.4-2.9 1-2.5c.6.4.7-.5.4-2.3-.6-3.1 1.1-7.6 2.6-6.7.5.3.6-1.1.3-3.1-.6-3.6-.6-3.7 2.1-3 2.5.6 2.7.5 2.1-1.5-.5-1.6-.4-1.9.5-1.4 1 .6 1.1.1.6-1.9-.9-3.7 0-4.8 4.1-4.4 2.5.2 4.2 1.1 5.6 3zm-101.6-.6c-.7.7 1.7 3.4 3.1 3.4.6 0 1.3.8 1.6 1.7 1 2.4-5.4 8.8-7 7.1-1.7-1.9-2.6-11.5-1.1-12.2 1.8-.7 4.1-.7 3.4 0zm10.8 8.4c-.8 1.4.8 1.3 2.2-.1.9-.9 1-.6.6 1-.3 1.2-.9 2.3-1.3 2.6-.5.3-.6 1.4-.3 2.5.5 1.7.1 2-1.8 1.6-1.3-.3-2.5-.5-2.6-.7-.2-.1-.6-.2-1-.3-2.7-.6-5.3-1.8-5.3-2.4.1-1.2 5-4.3 5.9-3.7.5.3 1.2.1 1.6-.5.3-.5 1.1-1 1.6-1 .6 0 .7.4.4 1zm3.7 4.2c-.7.7-1.2.8-1.2.2 0-.6.3-1.4.7-1.7.3-.4.9-.5 1.2-.2.2.3-.1 1.1-.7 1.7zm120.2 5.4c1 2.5.7 4.3-1 6.9-2.5 3.8-4.8 2.2-4-2.8.4-2.2.9-4.4 1.2-4.9.9-1.4 3.1-.9 3.8.8zm-212.4.3c0 1.1-3.9 2.5-4.7 1.8-.3-.3-.2-1 .2-1.6.8-1.3 4.5-1.5 4.5-.2zm257 2.2c0 2.7-2.2 4.9-5 4.9-3.4 0-3.8-1.4-1.3-4.2 1.7-1.9 6.3-2.5 6.3-.7zm-138.5 5.7c-.2.2-1.2-.2-2.3-.9-1.7-1.1-1.9-1.7-1-3.3 1.1-2 1.2-2 2.4.9.7 1.6 1.1 3.1.9 3.3zm-99.1-2.7c-.7 1.2-4.1 1.2-4.9 0-.6-1.1 2.3-2 4.2-1.3.7.2 1 .8.7 1.3zM341 321c0 .5-.7 1-1.5 1s-1.5-.5-1.5-1c0-.6.7-1 1.5-1s1.5.4 1.5 1zm210 18.4c-.5 1.5-1.4 2.4-2 2.1-1.1-.7-.4-4.8 1.4-8 1-1.9 1.1-1.9 1.4.6.2 1.4-.2 3.8-.8 5.3zm-66-5.4c0 .5-.4 1-1 1-.5 0-1-.5-1-1 0-.6.5-1 1-1 .6 0 1 .4 1 1zm-122.9 3.1c1.1.5 1.7 1.4 1.4 2-.9 1.4-4.1 1.1-5.4-.5-1.1-1.3-.7-1.9 1.7-2.5.2-.1 1.2.4 2.3 1zm86.5 6.5c-.4 6.3-.4 6.1-2.1 3.8-1.6-2.2-2-6.4-.5-6.4.6 0 1-1.2 1-2.8.1-2.1.3-2.4 1-1.1.5.9.8 3.8.6 6.5zm30.4-.6c-1.9 1.3-3 1.3-3 0 0-.6 1-1 2.3-1 1.8 0 1.9.2.7 1zm-15.4 6.5c-2.6 1.9-4.2 1.9-2.6 0 .7-.8 2-1.5 2.9-1.5 1.3.1 1.3.3-.3 1.5zm54.4 8.3c-1.9 3.8-6.1 8.2-7.8 8.2-1.7 0 .5-3.8 5.1-9 3.3-3.7 4.7-3.3 2.7.8zm-107 4c0 .5-1.1 1.8-2.3 3.1-2.1 1.9-2.5 2-3.7.6-1-1.2-1-1.8 0-3 1.3-1.6 6-2.1 6-.7zm91.6 11.8c-3 2.1-4.4 1.6-1.7-.7 1.3-1.1 2.7-1.7 3-1.3.3.3-.3 1.2-1.3 2zM473.5 388c-.3.5-1.3 1-2.1 1s-1.4-.5-1.4-1c0-.6.9-1 2.1-1 1.1 0 1.7.4 1.4 1zm-100.8 18.6c-.3.3-1.2.4-1.9.1-.8-.3-.5-.6.6-.6 1.1-.1 1.7.2 1.3.5zm-17.7 2.8c0 1.8-.6 2.2-4.7 3.1-4.1.8-4.4-.8-.5-2.9 3.5-1.9 5.2-2 5.2-.2zm167.4 21.7c-.3.5-1 .7-1.5.3-.5-.3-.7-1-.3-1.5.3-.5 1-.7 1.5-.3.5.3.7 1 .3 1.5zM322 441.8c0 1.3-1.2 2.2-2.2 1.6-1-.6-.1-2.4 1.3-2.4.5 0 .9.4.9.8zm22 7.1c-1.2 2.3-2.9 3.5-3.7 2.7-.7-.7 2.7-4.4 4-4.5.4-.1.3.8-.3 1.8zm193-.9c0 1.5-3.8 3.2-4.5 2-.3-.5-.3-1.5 0-2 .8-1.3 4.5-1.3 4.5 0zm-188.4 3.8c-1.4 1.4-1.6 1.4-1.6.1 0-2 2.3-4.4 2.9-2.8.2.6-.4 1.8-1.3 2.7zm43.8-.4c1 1.6 1.2 2.7.6 3.1-.6.3-1.3-.1-1.6-1-.6-1.4-.8-1.4-2.5.1-1.6 1.4-2.2 1.5-3.2.5-.9-1-.7-1.6 1.2-3.2 3-2.5 3.5-2.4 5.5.5zM542 460c-1.1 2-2.2 2.5-3.3 1.4-1.1-1.1.5-3.4 2.4-3.4 1.7 0 1.8.3.9 2zm-142 1.5c-2.5 2.7-4.4 3.3-3.8 1.2.4-1 4.4-3.6 5.7-3.7.3 0-.6 1.1-1.9 2.5zm77 6c-.9 1-.9 1.5-.1 1.5 1.8 0 1.3 3-.6 3.7-1 .4-2.9 1.4-4.3 2.4-1.4.9-4.9 2-7.9 2.4-3 .3-6.7 1.3-8.2 2.1-3.5 1.8-4.5 1.8-5.2 0-.4-1 .9-2.2 4.1-3.7 2.6-1.2 5.5-3 6.4-4 1.3-1.3 2.5-1.5 5.3-.9 3.2.7 3.7.5 5.6-2.1 1.1-1.6 3-2.9 4.1-2.9 1.7 0 1.8.2.8 1.5zm-43.5 3.5c-2.9 1.2-9.8 1.2-9 0 .3-.6 3-1 5.8-.9 3.8 0 4.7.3 3.2.9zm-245 12.9c.3.5.1 1.2-.5 1.6-.5.3-1-.1-1-.9 0-1.8.6-2.1 1.5-.7zm271 13l-2.7 2.6 2.3-3.9c1.3-2.2 2.5-3.4 2.7-2.7.2.7-.8 2.5-2.3 4zm-157.4 2.2c1.9 1 1.9 1.2-1.2 4.7-4.5 5.2-7.3 6.5-14.3 6.5-6.3 0-12.6-2.4-16-6.2-1.5-1.7-1.4-1.9 1.1-3.1 4.5-2.3 27.2-3.7 30.4-1.9zM254 501c0 .5-.9 1-2 1s-2-.5-2-1c0-.6.9-1 2-1s2 .4 2 1zm56.9 41.1c2.5 2.4 2.6 3.3.5 5.3-1.4 1.5-1.8 1.4-4.4-.6-2.7-2.2-4.4-5.4-3.5-6.8.8-1.2 5.2.1 7.4 2.1zm-131.2 2.1c-.3.8-.6.5-.6-.6-.1-1.1.2-1.7.5-1.3.3.3.4 1.2.1 1.9zM307.5 574c.3.5.1 1-.4 1-.6 0-1.1-.5-1.1-1 0-.6.2-1 .4-1 .3 0 .8.4 1.1 1zm-2.8 4.2c-.3.8-.6.5-.6-.6-.1-1.1.2-1.7.5-1.3.3.3.4 1.2.1 1.9zm-6 18c-.3.8-.6.5-.6-.6-.1-1.1.2-1.7.5-1.3.3.3.4 1.2.1 1.9zm10.8 27.6c-.3.3-1.1 0-1.8-.7-.9-1-.8-1.1.6-.5 1 .3 1.5.9 1.2 1.2z"/><path d="M134.5 75.9c-1.7.7-1.6.9 1.3 1.6 3.7.8 5.5-.1 3.2-1.5-1.7-1.1-1.8-1.1-4.5-.1zM134 92.7c0 1 8.7 3.3 12.3 3.3 2-.1 2-.2-.5-1.6-3.4-1.8-11.8-3-11.8-1.7zM415 190c0 .5.7 1 1.5 1s1.5-.5 1.5-1c0-.6-.7-1-1.5-1s-1.5.4-1.5 1zM408.5 191.1c-1.1.4-3.3.8-4.8.8-1.9.1-3 .7-3.4 1.9-.2 1.1-2.3 2.7-4.6 3.7-4.6 2-7.4 4.1-8.8 6.7-.8 1.5-.7 1.5 2.2.1 2.6-1.3 3.3-1.3 4-.2.7 1.1 1.3 1.1 3.8-.4 1.6-.9 3.8-1.7 4.9-1.7 1.4 0 2.2-.8 2.4-2.3.2-1.8.9-2.2 3.7-2.2 3.9 0 5.4-2.3 2.1-3.2l-2.2-.6 2.2-1.2c2.7-1.4 1.4-2.6-1.5-1.4zM383 193.4c0 1.7 2.7 2.9 3.5 1.6.4-.6.3-1.5 0-2-.9-1.5-3.5-1.2-3.5.4zM373.5 208c-1 1.1-1.4 2-.8 2 .5 0 2-.9 3.3-2 1.6-1.4 1.9-2 .8-2-.8 0-2.3.9-3.3 2zM365.6 210.6c-1.1 3-.6 3.7 1.4 1.9 1.1-1 2-2.2 2-2.7 0-1.5-2.8-.9-3.4.8zM377 216.5c-.7.8-.8 1.5-.2 1.5.5 0 1.5-.7 2.2-1.5.7-.8.8-1.5.2-1.5-.5 0-1.5.7-2.2 1.5zM194 217.4c0 1 .7 1.5 2 1.3 2.1-.3 4-1.7 2.2-1.7-.5 0-1.7-.3-2.6-.6-1.1-.4-1.6-.1-1.6 1zM221.8 230.9c-1.5 6.7-1.2 7.4 3 6.6 2-.5 4.5-.8 5.4-.9.9 0 1.4-.4 1.1-.9-.2-.4.1-1.5.9-2.4 1.1-1.4 1-1.5-1.2-.8-1.4.4-2.9 1.1-3.4 1.6-2.4 2.2-4.5.9-4.8-2.9l-.3-3.7-.7 3.4zM456.5 278c-.3.5-.1 1 .4 1 .6 0 1.1-.5 1.1-1 0-.6-.2-1-.4-1-.3 0-.8.4-1.1 1zM436.7 310.4c-.4 1-.5 2.1-.2 2.4.9.9 1.7-.6 1.3-2.5-.3-1.7-.4-1.7-1.1.1zM140 134.4c0 2.1 2.7 8.1 4.2 9.3 1.6 1.3 6.7 2.3 7.2 1.4.9-1.4-3.2-7.7-6.3-9.8-3.9-2.6-5.1-2.9-5.1-.9zM110.4 233.5c.5 2 .3 2.5-1.4 2.5-2.4 0-2.5.8-.4 3.5 1.2 1.7 1.7 1.8 3.5.7 1.7-1.1 2.4-1.1 3.6 0 1.3 1.1 1.3 1.4-.6 2.9-1.7 1.4-1.8 1.9-.7 2.8.7.6 1.6.8 1.9.4.4-.3 1.2-.1 1.9.4.9.7 2.5.4 5.5-1.2l4.2-2.3-2.2-2c-3.2-2.9-13.9-10.2-15-10.2-.5 0-.6 1.1-.3 2.5zM92.7 235.8c-.4 2.1.6 4.9 4 10.5 1.1 1.8 3.3-1.7 2.9-4.7-.6-4.6-1.4-6-4-7.2-2.2-1-2.5-.9-2.9 1.4zM55.7 237.7c-.4.3-.7 1.4-.7 2.4 0 .9-1.1 2.6-2.5 3.6l-2.5 1.8 3.1 8c1.7 4.4 3.1 9 3.1 10.2 0 2.9 3.7 4.2 5.4 1.9 1-1.4 1.6-1.5 3.7-.5 4.2 1.9 5.9.6 5.1-3.8-.3-2.1-1.2-4.5-1.9-5.3-.8-.8-1.1-2.7-.8-4.2.4-2.1.1-2.9-1.3-3.4-2.8-1-6.4-4.5-6.4-6.3-.1-1.6-2.3-5.1-3.2-5.1-.3 0-.8.3-1.1.7zM119.6 252.6c-.4 1.2-1.4 1.5-3.4 1.1-1.5-.2-3.6-.1-4.7.3-1.1.5-1.4.9-.7.9.6.1 1.2.8 1.2 1.6 0 1.7 2.9 3.5 8.5 5.2 4.7 1.5 6.3.1 4-3.4-.8-1.2-1.4-3.2-1.2-4.5.3-2.7-2.7-3.7-3.7-1.2zM72.2 257.9c.2 1.5 1.3 3 2.6 3.7 2.6 1.3 5.2 5.6 5.2 8.5 0 1.1.4 1.9.9 1.9s2.1 2 3.5 4.4c1.6 2.7 5.1 6.2 9.1 9.1 3.6 2.5 6.5 5 6.5 5.4 0 1.5 6.1 8.6 8 9.3 1 .4 2 2 2.3 4 .5 3.4-.6 5.8-1.7 3.9-.8-1.3-4.2-1.5-4.9-.3-.3.4-.3 2 0 3.5l.6 2.8 2.3-2.2c2.1-2 2.4-2 3-.5.4 1.1 0 2.2-1.2 3.1-1.4 1.1-1.6 1.7-.7 2.3.7.4 1.5 2.7 1.9 5 .4 2.4 1.3 4.9 2 5.7.8.7 1.4 2.3 1.4 3.4s.6 2.6 1.4 3.3c1 1 1.1 2 .4 3.8-1.8 4.8 1.3 19 4.2 19 .6 0 1 1.1 1 2.5s.5 2.5 1 2.5c1.3 0 1.3-3.3-.2-6.5s-.5-4.2 2.7-2.5c1.4.7 2.8 1 3.2.5.5-.4.2-1-.4-1.2-.7-.3-1.3-1.1-1.3-1.9 0-1.7-1.2-1.8-2.8-.2-2 2-2.6 0-1.2-4.1 1-3.1 1-5 .1-8.8-1.4-5.6-5-14.9-6.8-17.8-1.7-2.6-1.6-5.2.2-5.9 1-.4 1.5-2 1.5-5.4 0-2.6.4-5.2.9-5.7 1.5-1.7-.3-11-2.7-13.5-1.2-1.3-2.4-3.2-2.8-4.2-.3-1-1.1-1.8-1.9-1.8-.7 0-2.7-1.6-4.4-3.5-1.7-1.9-3.9-3.5-5-3.5-1.2 0-2.8-1.1-3.7-2.5-.9-1.4-2.1-2.5-2.8-2.5-2.1 0-4.2-1.9-3-2.8 1.7-1.1 2.7-6.3 1.2-6.1-2.6.3-3.8-.1-3.8-1.5 0-1.2-2.6-2.8-5-3.1-.3 0-1.2-.5-2-1s-3.2-1-5.3-1c-3.5-.1-3.8.1-3.5 2.4zM102.7 261.8c-.9 1-1.7 2.4-1.7 3 0 .7-.9 1.2-2 1.2s-2 .2-2 .5c0 1.4 9.8 9.2 13.3 10.6 8.1 3.1 13.5 5.9 14.1 7.4.3.8 1 1.5 1.6 1.5 1.8 0-.1-5.3-3.5-9.5-3.6-4.4-7.5-11.3-7.5-13.2 0-.7-1.7-1.5-3.7-1.8-2.1-.4-4.5-.9-5.4-1.1-.9-.2-2.3.4-3.2 1.4zM243.5 264.9c-.3.5-.1 1.2.5 1.6 1.2.7 3-.2 3-1.6 0-1.2-2.7-1.2-3.5 0zM45.1 276.9c-1 .6-1.1 1.3-.2 2.9.6 1.1 1.1 3.4 1.1 5.1 0 2.6-.4 3.1-2.5 3.1-4.3 0-5.4 5.2-1.9 8.7.7.7 1.5 3.6 1.9 6.5.6 4.1.4 5.4-.9 6.3-1.4 1.1-1.3 1.4.7 3.2 3.7 3.3 4.7 3.6 6.3 1.7 1.3-1.8 1.4-1.8 2 .3 1 3.6 2.4 2.7 2.4-1.6 0-3.2.4-4 2.2-4.4 1.2-.4 3.3-.4 4.5-.1 2 .5 2.3.2 2.3-2 0-1.4-.4-2.6-1-2.6-.5 0-1-1.2-1-2.6 0-1.9.4-2.5 1.5-2 1 .4 1.5-.1 1.5-1.4 0-1.1-.5-1.9-1.1-1.8-1.3.3-3.7-5.5-3.8-9.2-.1-3.3-1.8-5-5-5-1.5 0-3.5-1.2-5-3-1.8-2.1-3-2.7-4-2.1zm6.9 31.7c0 1.4-1.2 1.9-2.3.8-.9-.9.4-3.5 1.4-2.8.5.3.9 1.2.9 2zM34 281.9c0 1.2.5 2.1 1 2.1.6 0 1-.6 1-1.4 0-.8-.4-1.8-1-2.1-.5-.3-1 .3-1 1.4zM18 289.4c0 1.7.5 2.6 1.6 2.6 1 0 1.4-.7 1.2-2.2-.5-3.2-2.8-3.5-2.8-.4zM23 293c-1.2.7-1.2 1.2-.3 2.1.9.9 1.6.9 2.8-.1 2.9-2.4.9-4.2-2.5-2zM134.8 293.4c-1 .7-1.8 2-1.8 2.8 0 .8-.5 1.9-1.1 2.5-1.6 1.6-.3 7.9 2.1 10.3 1 1 2.6 3.2 3.4 4.8.8 1.6 2.2 3.4 3.1 4.2.9.7 2.7 3.7 4.1 6.7 1.4 2.9 2.9 5.3 3.4 5.3 1.7 0 7 5.2 7 7 0 1 1.4 2.4 3.5 3.4 2.2 1.1 4 2.9 4.9 4.9.7 1.8 2 3.8 2.9 4.6 1.4 1.1 2.5 5.1 1.4 5.1-.8 0-8-4.1-13.2-7.6-7.8-5.1-10.7-6.2-17.8-6.2-7.7-.1-7.1 2 .8 2.4 4.3.3 6.8 1 9.6 2.9 4.5 3.2 7.4 6.3 6.6 7.1-.3.3-4-.4-8.3-1.6-6-1.7-8.2-2-9.6-1.1-1 .6-2.5 1.1-3.3 1.1-1.2 0-1.3.4-.6 1.8.8 1.5 2.8 2.3 12.5 4.9 1.4.4 1.8.1 1.3-1.1-.8-2.1 3.7-2.2 7.7-.1 1.5.8 3.3 1.5 3.8 1.5s2.6 1.1 4.6 2.5c2 1.4 4.6 2.5 5.8 2.5 1.2 0 4.5 1.6 7.4 3.5 6 4 8.6 4.7 8.4 2.3-.1-1.1.4-1.4 1.4-1.1 1.9.8 10.8 6.5 14.7 9.5 8 6.2 11.7 7.9 15.6 7.3 2.2-.4 4.6-.2 6 .5 2.5 1.4 4.2-.3 3.3-3.3-.9-2.8 2.3-2 5.8 1.5 1.7 1.9 2.9 2.5 2.5 1.5-.6-1.7.2-2.1 3.3-1.8.8.1 3 1.8 4.8 3.8 2.9 3.3 3.2 3.4 3.2 1.4 0-1.2-.7-3.8-1.5-5.8s-1.3-3.8-1-4.1c.3-.3 2.3 0 4.4.7 2.9.8 4.1 1.8 4.3 3.4.2 1.5 1.1 2.3 2.8 2.6 1.4.1 2.7.6 3 1 .3.4 2.7 1.8 5.4 3.2 3.6 1.7 5 2.1 5.3 1.1.7-1.8 4.1-1.4 6.3.8 1.6 1.6 3.3 2 8.5 2 7.5 0 8.8-1.8 3.3-4.6-1.8-.9-4.4-2.6-5.8-3.9-2.1-1.9-8.2-5.3-18-10-1.4-.7-3.8-1.5-5.5-1.9-2.6-.7-2.8-.9-1.2-1.8 2.6-1.4.7-3.3-7-7-3.5-1.7-6.3-3.5-6.3-3.9 0-.4-1.2-2.2-2.6-3.9-1.5-1.7-2.4-3.4-2-3.7.3-.3 4.5-.1 9.3.4 5.3.7 9.6.7 11.1.2 1.4-.5 3-.5 4 0s2.6.5 4.1-.1c1.4-.5 3.7-.8 5.1-.7 3.6.3 6-1 6-3.3 0-1.8.4-1.9 3.8-1.3 2 .4 8.9.9 15.2 1 8.4.1 12.3.6 14.6 1.8 1.8.9 4.9 1.7 7 1.7 5.3.1 13.2-1.4 11.8-2.2-.6-.4-7.1-1.2-14.5-1.8-7.4-.6-13.8-1.5-14.3-2-.6-.6-2-1-3.2-1-1.3 0-2.5-.4-2.8-.9-.3-.4-3.8-1.1-7.7-1.4-5.4-.5-7.8-1.1-9.3-2.7l-2-2h3.1c1.8 0 3.5.4 3.8 1 .3.5 3.1 1 6.1 1 6 0 7.1-1.6 3.2-4.3l-2.3-1.6h2.2c1.2-.1 2.5.3 2.8.9 1.1 1.7 3.5 1.1 3.5-1 0-1.4-1.1-2.2-3.9-3.1-4.2-1.3-7.7-.6-6.5 1.2.4.8-.1.9-1.7.4-3.8-1.2-4.4-2.3-2.4-4.5 1.7-1.9 1.7-2-.8-2.9-1.5-.6-3.8-.6-5.5-.2-1.6.5-4.1.7-5.6.4-3.2-.6-3.4.4-.3 1.7 2.9 1.1-4 1.5-21 1.1-10.7-.3-12.3-.1-12.3 1.2 0 1.5 2.4 3.5 4.3 3.5 2 .1 1.8 1.2-.2 1.2-1.2 0-2 .3-1.8.7.9 1.5-6.6 1.3-8.9-.2-2.6-1.7-6.4-2-6.4-.5 0 1.2 7.5 4.5 12.5 5.5l4 .8-2.7.9c-3 1-3.5 2.2-1.7 3.4.7.4-.2 1.3-2.2 2.1-2.8 1.2-4.2 1.2-7.4.2-4.9-1.4-10.5-4.1-10.5-5 0-1.2 2.5-1.7 5.4-1.2 3.6.7 3.1-1.9-.5-2.7-2.9-.7-11.4-4.5-13.2-6-5.3-4.5-9.5-7.2-12.7-8.1-2.1-.7-5.9-3.1-8.4-5.5-2.7-2.6-5.5-4.4-6.8-4.4-2.7 0-8.8-5.2-8.8-7.4 0-.8-.6-1.9-1.3-2.3-.7-.4-3-2.9-5.1-5.6-2.1-2.6-4.4-4.7-5.1-4.7-2 0-.5 4.9 1.8 5.6 2.3.7 5.6 4.3 5.7 6 0 .6.9 2.3 2 3.6 1.9 2.4 1.9 2.6.1 4.2-.9.9-2.7 1.6-3.8 1.6-2.3 0-5.3-2.9-5.3-5.2 0-.9-.7-1.9-1.6-2.2-1.3-.5-1.4-.1-.9 2.4.4 1.8.2 3-.3 3-2 0-6-6-6.7-9.9-.6-3.9-2.4-6.4-4.1-5.9-1.8.6-7.4-2.5-7.9-4.3-.7-2.2-1.4-2.3-3.7-.5zm37 28.6c.6 0 2.2 1 3.5 2.2 1.3 1.3 4.8 4.6 7.8 7.4 3 2.8 7.2 5.7 9.4 6.4 5.2 1.7 8.4 4.1 8.5 6.2 0 2.2.1 2.2-4.3.3-4.5-1.9-4.7-1.9-4.7 0 0 .8 1.1 2.2 2.5 3.1 2.4 1.5 2.4 1.7.7 4-2.8 3.9-8.6 2.5-13.7-3.2-1.3-1.5-5.8-4.4-6.7-4.4-.5 0-.8.8-.8 1.7-.1 1.6-.2 1.6-1.6-.2-.9-1.1-2-3.2-2.6-4.6-.5-1.5-2.9-4.1-5.4-5.8-2.4-1.8-4.4-3.6-4.4-4 0-.5 2-1.5 4.5-2.3 3.8-1.3 4.7-1.3 5.7-.1.7.9 1.5 1 2.1.4 1-1-2-7.1-3.5-7.1-.4 0-.8-.8-.8-1.8.1-1.6.1-1.6 1.4 0 .7 1 1.8 1.8 2.4 1.8zm106.3 9.1c-1.6.6-2.8.6-3.5-.1-.7-.7.1-1 2.5-.9 3.2 0 3.3.1 1 1zM248 342c0 .5-1.6 1-3.5 1s-3.5-.5-3.5-1c0-.6 1.6-1 3.5-1s3.5.4 3.5 1zm23.5 4c.3.5.1 1-.4 1-.6 0-1.1-.5-1.1-1 0-.6.2-1 .4-1 .3 0 .8.4 1.1 1zm-87 13c.3.5.1 1-.4 1-.6 0-1.1-.5-1.1-1 0-.6.2-1 .4-1 .3 0 .8.4 1.1 1zm27.5 1c0 .5-.7 1-1.5 1s-1.5-.5-1.5-1c0-.6.7-1 1.5-1s1.5.4 1.5 1zm-2.5 3c.3.5.1 1-.4 1-.6 0-1.1-.5-1.1-1 0-.6.2-1 .4-1 .3 0 .8.4 1.1 1zm4.5 1.4c0 .3-.4.8-1 1.1-.5.3-1 .1-1-.4 0-.6.5-1.1 1-1.1.6 0 1 .2 1 .4zm27 8.5l2.5.7-2.4 1.3c-1.7.9-2 1.5-1.1 2.1.9.5.9.9.1 1.4-.6.4-1.1.3-1.1-.2 0-2-13-3.7-16.2-2.1-1.4.7-2.8-.6-2.8-2.6 0-1.2 17.2-1.7 21-.6zm24.4 11.7c2.6 2.5 1.8 3.6-1.4 1.9-1.7-.9-2.8-2-2.5-2.5.9-1.4 2.1-1.2 3.9.6zM32.1 294.6c0 1.1.3 1.4.6.6.3-.7.2-1.6-.1-1.9-.3-.4-.6.2-.5 1.3zM245.8 295.7c.7.3 1.6.2 1.9-.1.4-.3-.2-.6-1.3-.5-1.1 0-1.4.3-.6.6zM28.5 297c.3.5.8 1 1.1 1 .2 0 .4-.5.4-1 0-.6-.5-1-1.1-1-.5 0-.7.4-.4 1zM34 297c0 .5.5 1 1 1 .6 0 1-.5 1-1 0-.6-.4-1-1-1-.5 0-1 .4-1 1zM12 299.3c-1.6.8-2.5 2.1-2.5 3.7 0 1.4-.4 3.1-.9 3.9-.6.9-.4 1.8.6 2.5 2.7 2 3 5.1.8 7.1-1.8 1.6-2 2.9-1.8 8.8.2 7.7.8 8.3 8 9.2 2.3.3 6.2.8 8.6 1.1 3.8.5 4.2.4 4.2-1.4 0-1.2-.7-2.5-1.6-3-1.3-.7-1.5-1.5-.7-3.7l.9-2.7 4.1 3.4c4.6 3.6 6.1 8.6 4.9 15.3-.6 3.2-.9 3.5-3.4 2.9-1.5-.4-4-1.8-5.5-3.1-1.6-1.2-4.1-2.3-5.6-2.3s-3.6-.9-4.6-2c-1.2-1.3-3.1-2-5.6-2-3.4 0-3.9.3-5 3.5-.7 1.9-1.7 3.5-2.1 3.5-.4 0-.8.9-.8 1.9 0 2.6 2.4 3.2 11.7 3 7.5-.3 8-.1 13.1 3.4 5.3 3.6 13.4 11.9 13.2 13.4-.1.4-.8.7-1.6.5-2-.4-5.4 1.6-5.4 3.4 0 .8 1.1 1.9 2.4 2.6 1.4.6 3 2.3 3.6 3.7.9 2.3 5 7 10.5 12.1 1.9 1.8 6.7 9.1 6.3 9.6-.2.1-3-1-6.3-2.6s-7.2-3-8.7-3c-1.8 0-3.3-.9-4.4-2.5-1.7-2.7-6.6-5.5-9.5-5.5-2.3 0-3.4-1.9-2-3.3.6-.6 1.1-2.6 1.1-4.3 0-2.4-.5-3.4-2-3.9-1.3-.4-2-1.5-2-3.1 0-4.6-3.5-2-4.6 3.4-.4 1.7-1.3 3.7-2 4.3-.8.7-1.4 3-1.4 5.5v4.3l3.2-.6c2.8-.6 3-.4 2.3 1.3-2 4.2-.1 16.7 3 19.7 1 1.1 1.1 1.7.3 2.5-1.7 1.7-.3 2.5 2 1.1 2.5-1.6 5.4-.5 4.5 1.7-.5 1.4-.1 1.5 2.4 1 2.5-.6 3.1-.3 4.4 2.1.8 1.5 2.7 4.1 4.4 5.6 2.8 2.8 3.1 2.8 8 1.8 4.6-.9 5.2-.8 6.8 1.2 1.1 1.2 1.7 3.1 1.4 4.5-.4 2.1-.2 2.3 2.2 1.7 7.8-1.9 7.9-1.9 8.6 1.4.5 2.3 1.6 3.5 3.8 4.5 1.8.7 4.1 2.3 5.1 3.5 2.6 2.9 5.1 2.8 4.1-.2-.5-1.2-1-5.2-1.2-8.8-.3-5-.1-6.8 1.1-7.8 2.3-2 6 2.2 5.2 6-.6 3.2.1 3.7 1.8 1.4 1.7-2.3 8.4-.2 9.2 3 .6 2.6-1.7 6.9-3.9 7.1-.6 0-2 .2-2.9.2-.9.1-1.9 1.1-2.3 2.1-.9 2.8-3.5 3.4-5.7 1.4-1.9-1.7-2.1-1.7-4.3 1.1-2.7 3.4-2.4 4.6 1 4.6 1.8 0 2.6.7 3.1 2.5.3 1.4 1.4 2.5 2.3 2.5.9 0 2.5.8 3.6 1.6 1.9 1.5 1.9 1.7-3.3 6.3l-5.2 4.8 2.6 2.8c1.6 1.7 2.2 3.1 1.5 3.3-.6.2-1.1 1.1-1.1 1.9 0 1.1.7 1.4 2.5 1.1 1.7-.4 2.5-.1 2.5.9 0 .9.8 1.3 2.3 1.1 1.8-.2 2.1-.8 1.9-3.3-.2-1.7-.8-3.2-1.3-3.3-1.8-.7-.8-3.9 2.1-6.8 1.6-1.6 3-3.6 3-4.5 0-1.8 2.9-7.9 3.7-7.9.3 0 .2.7-.1 1.6-.4 1 0 1.8 1.3 2.1 1.2.3 2.1 1.7 2.6 3.9.3 1.9 1 3.4 1.5 3.4 1.3 0 3-3.4 3-5.9 0-2.9 1.6-2.6 4.5.6 2.5 2.9 3.2 5.3 1.5 5.3-.5 0-1 .9-1 2s-.6 2.9-1.2 4c-1.1 1.7-1 2.2.2 3 .8.6 2.6.9 4 .8 2.4-.3 2.5-.6 2.2-5.8-.1-3-.8-6.5-1.4-7.7-.9-1.9-.8-2.7.7-4.3 1.5-1.7 1.6-2.4.6-4.6-.7-1.7-1.7-2.4-2.6-2-.8.3-2.6.1-4-.4-2.3-.9-2.4-1.3-1.9-5.3.7-5.1-.2-6.2-4-4.7-4.6 1.7-7.5-1.1-4.1-4 2.2-1.8 1.8-3.9-.9-6.1-1.3-1-2.6-2.9-3-4.2-.5-2.3-6.1-5.7-9.2-5.7-2.9 0-7.4-3.4-7.4-5.6 0-3.8-6.1-7.3-7.3-4.2-.8 2.4-4.1-.7-5.2-4.7-.5-2.1-2.6-5.5-4.7-7.7s-3.8-4.4-3.8-5c0-1.7 3.2-7.8 4.1-7.8 1.4 0 1.1-2.3-.7-5.9-1.5-3.1-1.7-3.2-4-1.6-2.2 1.4-2.5 1.4-3 0-.3-.8-1-1.2-1.5-.9-.5.3-.9 0-.9-.5 0-.6.4-1.1.9-1.1 1.4 0 2.2-3.1 1.1-4.5-.6-.7-2.1-1-3.3-.8-1.8.4-2.9-.4-5.1-3.7-2.5-3.8-2.7-4.7-2.2-11.3.3-4 .9-9.4 1.4-12 1-5.6.6-9.2-1.4-10.8-.8-.6-1.4-2-1.4-3s-1.3-2.5-3-3.4c-1.6-.9-3-2.1-3-2.9 0-.7-1.9-3.2-4.2-5.5-6.7-6.5-7.8-8-7.8-10 0-1-.9-2.1-2-2.4-1.1-.3-2-1.2-2-1.9 0-.8-1.7-2-3.9-2.6-4.6-1.4-4.1-1.5-7.1.1zm4 14.7c0 .5-.4 1-1 1-.5 0-1-.5-1-1 0-.6.5-1 1-1 .6 0 1 .4 1 1zm8.5.1c.4.5 1.8 1.4 3.1 1.9 3.2 1.3 3.2 4-.1 4-1.8 0-2.5-.5-2.5-2 0-1.1-.7-2-1.5-2s-1.5-.7-1.5-1.5c0-1.7 1.6-2 2.5-.4zm17.8 81.6c-.2 1.7.5 2.2 3.9 2.7 10.6 1.7 19.2 8.6 15.4 12.5-1.4 1.3-1.8 1.3-3.9-.7-1.3-1.2-2.9-2.2-3.7-2.2-.7 0-2.1-.7-3-1.5-1.7-1.5-11-2.7-11-1.4 0 .4.6.9 1.2 1.1 1.9.7-1.8 4-3.9 3.6-2.5-.5-3-3.8-.5-3.8 2 0 2.6-2.7.9-4.8-.7-.8-.5-1.2.7-1.2 1.8 0 2.2-3.5.6-4.5-1.5-.9-.1-2.7 1.8-2.3 1 .2 1.6 1.2 1.5 2.5zm58.3 50c-1 1-1.9-.5-1-1.8.6-1.1.8-1.1 1.2 0 .2.7.1 1.5-.2 1.8z"/><path d="M156.2 301.7c.2 1 1.1 1.9 2.1 2.1 1.6.3 1.7.1.5-1.7-1.6-2.5-3.1-2.7-2.6-.4zM101.2 316.1c.2.7 1 1.5 1.7 1.7.8.3 1.2-.1.9-.9-.2-.7-1-1.5-1.7-1.7-.8-.3-1.2.1-.9.9zM52.5 320c-.3.5-.1 1.1.5 1.5.5.3 1 1.6 1 2.8 0 3.1 3 10.8 5.2 13.3 1 1.1 1.5 2.4 1.1 2.8-.4.4.3.9 1.5 1.3 1.2.3 2.2 1.1 2.2 1.7 0 .6 1.3 1.9 2.9 2.9 2.2 1.3 3.1 1.4 3.4.5.4-.9.8-.6 1.2.7.6 1.9 6.5 6.5 8.4 6.5 1.8 0 10.1 4.1 10.1 5 0 .6.5 1 1 1 .6 0 1-1 1-2.1 0-2.3-3.1-5.7-8-8.5-3.4-2.1-3.7-2.9-1.4-3.8 1.7-.7 1-2.6-1.1-2.6-.7 0-2.7-1.4-4.5-3-1.8-1.7-4-3-5-3-2 0-4.1-2.3-5.8-6.3-.6-1.5-1.6-2.7-2.2-2.7-.5 0-1-.9-1-1.9 0-3.1-9.1-8.4-10.5-6.1zM284 320.3c0 .8.7 1.8 1.6 2.1.9.4 1.4 1.3 1 2.1-.6 1.7-.9 1.6 6.7 2.1 3.2.2 5.7-.1 5.7-.6 0-.6-1.5-1-3.2-1-5.3 0-7.7-1-8-3.3-.3-2.5-3.8-3.7-3.8-1.4zM262.5 327c-.3.5.1 1 .9 1s1.8-.5 2.1-1c.3-.6-.1-1-.9-1s-1.8.4-2.1 1zM311.7 326.7c-1.1 1 1.3 3.3 3.4 3.3 2.2 0 2.4-1.1.7-2.8-1.3-1.3-3.1-1.6-4.1-.5zM129.7 327.7c-2.4.6-1.7 2.5 1.1 3 1.6.2 2.2-.2 2.2-1.7 0-2-.2-2.1-3.3-1.3zM231.8 328.7c.7.3 1.6.2 1.9-.1.4-.3-.2-.6-1.3-.5-1.1 0-1.4.3-.6.6zM328.3 331.4c-3 1.4-2.9 3 .1 2.2 1.3-.3 2.6-.2 2.8.4.5 1.5 10.8 0 10.8-1.6 0-.8-1.3-1.3-3.8-1.2-2.2 0-4.8-.2-5.8-.4-1-.3-2.9 0-4.1.6zM299 338c0 .5.7 1 1.6 1 .8 0 1.2-.5.9-1-.3-.6-1-1-1.6-1-.5 0-.9.4-.9 1zM92 340.5c-1 1.2-.9 1.6.3 2.1.9.3 2.1.3 2.7-.1.5-.3 1-.1 1 .4 0 .6.5 1.1 1 1.1.6 0 .3-1.1-.6-2.5-1.9-2.9-2.7-3.1-4.4-1zM369.5 343.2c-6.8 2.3-7.2 2.7-3.2 2.7 4 .1 7.7-1.3 7.7-2.9 0-1.2-.5-1.1-4.5.2zM320 344c0 .5 1.2 1 2.6 1 1.4 0 2.3-.4 1.9-1-.3-.6-1.5-1-2.6-1-1 0-1.9.4-1.9 1zM382 346c0 .5.7 1 1.5 1s1.5-.5 1.5-1c0-.6-.7-1-1.5-1s-1.5.4-1.5 1zM352.4 354.8c.7 2.2-4 4.2-9.6 4.2-2.3 0-3.8.6-4.2 1.5-.3.8-1.2 1.5-2 1.5s-1.8.4-2.1 1c-.4.6 1 .8 3.9.4 3.2-.5 5-.2 6.7 1 3.1 2.1 4.2 2 3.4-.3-.5-1.5.3-2.2 3.9-3.6 5.2-2 13.5-1.6 20.5 1 2.7 1 5.5 1.3 7.5.9 3-.6 8.6-4.2 8.6-5.4 0-2.3-16.2-4.1-17.5-2-.4.6-1.1.8-1.6.4-.5-.3-3.1.2-5.8 1.1-3.4 1.1-5.5 1.3-7.2.6-2.2-.9-2.3-1-.3-1 1.2-.1 2.7-.8 3.4-1.6 1.1-1.3.6-1.5-3.4-1.5-4.1 0-4.7.2-4.2 1.8zM306 355.4c0 1 1.5 2.3 3.5 3.2 2.9 1.2 4.2 1.2 7.5.2 5.4-1.7 5.2-3.7-.2-3.6-2.4.1-5.8-.2-7.5-.6-2.7-.7-3.3-.6-3.3.8zM529.6 357.7c-.3.3-.3 1 0 1.4.7 1.2 3.4 1.1 3.4 0s-2.6-2.2-3.4-1.4zM13 360.2c-6.4 1.8-9.2 6.1-4.6 7 2.7.5 13.6-4.1 13.6-5.8 0-.7-1-1.4-2.2-1.8-2.7-.7-2.3-.7-6.8.6zM26.4 362.1c-.8 1.4 1.8 3.1 3 1.9.9-.9 0-3-1.4-3-.5 0-1.2.5-1.6 1.1zM532 361.9c0 .6.5 1.3 1 1.6.6.3 1-.1 1-.9 0-.9-.4-1.6-1-1.6-.5 0-1 .4-1 .9zM306.8 363.8c2.6 2.6 4.7 2.8 5.6.7.4-1.1-.1-1.5-1.8-1.5-1.4 0-3.2-.3-4.2-.7-1.4-.5-1.3-.2.4 1.5zM385.5 363c-.3.5.1 1 .9 1s1.8-.5 2.1-1c.3-.6-.1-1-.9-1s-1.8.4-2.1 1zM134.9 365.9c4 3.6 6.1 4 6.1 1.2 0-2.4-.4-2.6-5.5-3.5l-4-.8 3.4 3.1z"/><path d="M350.8 365.7c.7.3 1.6.2 1.9-.1.4-.3-.2-.6-1.3-.5-1.1 0-1.4.3-.6.6zM363.6 367.8c-.9 1.1-1.4 2.2-.9 2.5.4.3 5 .3 10.1 0 7.5-.5 9-.8 8.1-1.9-.6-.7-2.5-1.3-4.2-1.2-1.8 0-5-.2-7.2-.6-3.4-.6-4.4-.3-5.9 1.2zM297 368c2 1.3 4 1.3 4 0 0-.6-1.2-1-2.7-1-2.2 0-2.5.2-1.3 1zM323 371.7c-1.4.7-2.9 1.4-3.5 1.6-.5.3-.7.7-.4 1.1.3.3 3.7-.5 7.5-1.9 6.5-2.3 6.7-2.4 2.9-2.3-2.2.1-5.1.8-6.5 1.5zM348.5 370.9c-.8 1.5.7 1.9 4.4 1.4 2.3-.4 2.9-.8 2-1.4-1.9-1.2-5.6-1.1-6.4 0zM135.2 372.2c.5 1.5 2.8 2.3 2.8 1 0-.5-.7-1.3-1.6-1.6-1-.4-1.4-.1-1.2.6zM260.8 372.7c.6.2 1.8.2 2.5 0 .6-.3.1-.5-1.3-.5-1.4 0-1.9.2-1.2.5zM366.5 373c-.4.6-.3 1.6.3 2.2.6.6 1.2.6 1.7-.2.4-.6.3-1.6-.3-2.2-.6-.6-1.2-.6-1.7.2z"/><path d="M380.1 373.7c-3.6.7-6.7 1.5-6.9 1.8-1.1 1 1.2 2.5 3.9 2.5 1.7 0 2.8.4 2.5.9-.4.5-3.3.8-6.6.7-3.4-.2-6.3.1-6.6.6-.9 1.4-3.4.9-5.1-1.2-1.8-2.1-4.3-2.7-4.3-1.1 0 .5.7 1.1 1.5 1.5.8.3 1.2 1.2.9 2.1-.4 1.1.1 1.5 1.7 1.6 10.7.5 13.8.8 16.8 1.6 5.1 1.3 5.2 3.3.2 3.3-2.3 0-4.1.5-4.1 1.1 0 .6 1.3.8 3.1.5 2.5-.4 3.2-.1 3.6 1.5.4 1.3 1.4 1.9 3.4 1.9 1.6 0 2.9-.5 2.9-1.1 0-.7.9-.9 2.3-.6 1.2.4 2.9.2 3.7-.3 1.3-.8 1.3-1.1 0-2.4-.8-.8-3.1-1.9-5-2.4-1.9-.6-2.7-1.1-1.7-1.1 1.2-.1 1.7-.7 1.5-1.9-.1-.9.1-2.3.5-3 .6-.8.2-1.2-1.1-1.2-3.1 0-3.6-2.9-.7-4.2 2.6-1.2 3.4-2.9 1.3-2.7-.7.1-4.2.8-7.7 1.6zM147 374c0 .5 1.2 1 2.6 1 1.4 0 2.3-.4 1.9-1-.3-.6-1.5-1-2.6-1-1 0-1.9.4-1.9 1zM123.6 375.9c-.4.7-.5 1.5-.2 1.8.9.9 1.9-.4 1.4-1.8-.4-1.1-.6-1.1-1.2 0zM419 376c-.8.5-1.1 1.2-.8 1.6 1 .9 5.8-.4 5.8-1.6 0-1.3-3-1.3-5 0zM68 377c0 .5.5 1 1 1 .6 0 1-.5 1-1 0-.6-.4-1-1-1-.5 0-1 .4-1 1zM304 377c0 .6 1.1.8 2.8.4 3.9-1 4-1.4.4-1.4-1.8 0-3.2.5-3.2 1zM313.6 379.6c-1.2 2.6-1.4 4-.7 4.7.8.8 1.5.7 2.3-.1.7-.7 2.2-1.2 3.5-1.2 1.2 0 2.7-.9 3.3-1.9 1.4-2.7 1.4-2.8-2-2.3-2.3.3-3 0-3-1.2 0-2.7-1.5-1.8-3.4 2zM328.5 377.3c-5.6 2.6-7.1 6.9-2.8 8.3 1 .3 3.8 1.5 6.1 2.7 5.7 2.7 16.2 2.4 16.2-.4 0-.6-.4-.7-1-.4-.5.3-4.3.3-8.5-.1-5.3-.5-7.5-1.1-7.5-2 0-.8 1-1.4 2.3-1.4 1.2 0 4.6-.9 7.5-2 2.9-1.1 6.3-2 7.5-2 1.3 0 3.2-.7 4.3-1.5 1.7-1.3 1.4-1.4-3.7-1.5-3.1 0-8.3-.2-11.5-.5-3.9-.4-6.9-.1-8.9.8zM436 377.6c-3.8 1.4-3.8 1.5.2 1.8 1.5.1 3.9 1.2 5.3 2.6l2.5 2.3v-2.6-3.5c-.1-1.4-4.6-1.8-8-.6zM425.5 381c-.3.5-.2 1 .4 1 .5 0 1.3-.5 1.6-1 .3-.6.2-1-.4-1-.5 0-1.3.4-1.6 1zM77.2 388.5c.3 4.7.9 7 2.5 8.7 1.9 2.2 3.9 8.8 3.4 11.5-.1.8.9 1.3 2.4 1.3 2.3 0 2.5-.3 2.5-5.1 0-4.3-.4-5.5-2.8-7.7-3-2.9-4.2-6.2-5.1-14.5-.1-.4-.8-.7-1.7-.7-1.4 0-1.6 1-1.2 6.5zM148 382.9c0 1.5 16.1 6.4 17.3 5.2.7-.7.5-1.2-.9-1.7-1-.4-3.8-1.5-6.1-2.5-4.3-2-10.3-2.5-10.3-1zM1.3 384.7c-1 .3-1.3 3.9-1.3 12.8v12.2l3.1.7c4.5.9 5.2.8 4.6-.8-.3-.8-.1-1.7.6-1.9.9-.3.9-1.2 0-3.9-.7-1.9-1.3-6.1-1.3-9.4-.1-4.3-.6-6.5-1.9-8.2C4 385 3 384 2.8 384.1c-.1 0-.9.3-1.5.6zM503 385c-2.3 1.4-.1 2.8 5.8 3.6 6.5.8 7.1-1 1-2.7-2.4-.6-4.5-1.3-4.8-1.4-.3-.2-1.2 0-2 .5zM446.6 385.7c-.3.4-2.5.9-4.8 1.2-4.4.6-7.3 3.6-5.9 6 .7 1.1 1.6 1.1 4.7.1 8.3-2.6 9.2-3.3 7.9-5.7-.7-1.3-1.5-2-1.9-1.6zM288.8 386.7c.7.3 1.6.2 1.9-.1.4-.3-.2-.6-1.3-.5-1.1 0-1.4.3-.6.6zM293 390.6c0 .7 1.2 2.1 2.7 3.2l2.8 2-2.3 2.4c-1.2 1.4-2.2 3-2.2 3.6 0 .7-.4 1.2-.9 1.2-1.2 0-2.4 3.7-1.6 4.9.3.6 2.1.4 4.6-.4 3.8-1.4 4.5-1.3 8.9.6 3.7 1.6 5.3 1.8 6.7 1 1.1-.6 1.3-1.1.5-1.1-.7 0-1.1-.3-.9-.8.3-.4.1-1.7-.4-3-.7-1.7-1.6-2.2-4.6-2.2l-3.8-.1 2.4-1.9c1.2-1.1 2.7-1.8 3.2-1.5 1.3.9 4.9-3.3 4.3-5-.7-1.8-1.6-1.9-3.1-.4-.9.9-1.8.8-3.8-.5-3.6-2.3-12.5-3.8-12.5-2zM318.5 391c-.8 1.4.3 3 2.1 3 .8 0 1.4-.9 1.4-2 0-2.1-2.4-2.8-3.5-1zM374.6 391.8c-.3.6-.1 1.4.5 1.7 1.4.9 2 .2 1-1.4-.6-.8-1.1-.9-1.5-.3zM131.2 395.2c-.7.7-1.2 1.8-1.2 2.5 0 2.5 5 12.4 5.9 11.9 1.1-.7.9-6.5-.2-8.4-.6-.8-.1-1.2 1.3-1.2 1.5 0 2 .5 1.7 1.4-.3.8 0 1.7.7 1.9.8.3 1.7 2.2 2.1 4.3.8 4.3 3.6 8.7 7.7 12.2 1.6 1.3 2.8 3 2.8 3.7 0 .7.7 1.5 1.5 1.9 1.7.6 2 2.6.4 2.6-.6 0-1.7-.7-2.5-1.5-2.6-2.6-3.9-1.6-1.4 1 1.3 1.4 3.1 2.5 4.1 2.5 1 0 2 .4 2.4.9.3.5 1.8 1.2 3.4 1.6 1.6.3 3.5 1.2 4.1 2 .6.7 2.6 1.6 4.4 1.9 2.1.4 3.8 1.5 4.6 3.1 1.6 3 3 3.2 3 .5 0-2.3-2.7-5.3-6.7-7.4-1.6-.8-5.1-4.3-7.8-7.8-6.3-8-10.2-11.8-12-11.8-.8 0-1.5-.4-1.5-.9s-.9-1.1-2-1.4c-1.5-.4-1.9-1.2-1.6-3.4.5-4.5-.9-6.9-4.3-7.6-1.8-.4-3.1-1.3-3.1-2.1 0-.9-.9-2-1.9-2.6-2.4-1.3-2.4-1.3-3.9.2zM394.2 395.5c.3.3 2 1 3.7 1.5 2.8.8 3.1.7 2.1-.5-.7-.8-2.4-1.5-3.8-1.5s-2.3.2-2 .5zM520.5 395.7c-1.1.2-3 .6-4.2.9-1.3.2-2.3 1.2-2.3 2 0 1.4.9 1.6 5.1 1.2 5.7-.6 8.3-2.3 5.9-3.8-.8-.5-1.7-.9-2-.9-.3.1-1.4.3-2.5.6zM229.6 399.2c3.7 4.5 5.2 4.6 3.3.4-.7-1.5-2-2.6-3.2-2.6-2 0-2 0-.1 2.2zM477.8 399.3c1.2 1.3 2.2 2.9 2.2 3.6 0 .8 1.1 1 3.8.5 4.3-.8 4.6-.9 3.8-2.2-.5-.9-9.4-4.2-11.2-4.2-.4 0 .2 1 1.4 2.3zM371 399c0 .5.7 1 1.5 1s1.8 0 2.2.1c.4 0 .9-.4 1.1-1 .2-.6-.8-1.1-2.2-1.1-1.4 0-2.6.4-2.6 1zM385.6 398.8c-.7 1.2-.1 1.7 3.4 2.5 2.4.6 6-.6 5-1.7-1.2-1.1-7.8-1.7-8.4-.8zM447 399c-1.2.8-1.1 1 .8 1 1.2 0 2.2-.5 2.2-1 0-1.3-1.1-1.3-3 0zM287.4 400.5c.8.8 1.9 1.5 2.5 1.5.6 0 1.1-.7 1.1-1.5 0-.9-1-1.5-2.6-1.5-2.3 0-2.4.2-1 1.5zM322.5 400.7c-4.9.7-5.4 2.3-.8 2.3 2.3 0 4.8-.3 5.7-.6 1.8-.7 1.2-2.5-.7-2.3-.7.1-2.5.4-4.2.6zM520.7 401.7c-1.4 1.3-.6 2.4 1.5 2.1 2.7-.4 3.6-2.8 1.1-2.8-1.1 0-2.3.3-2.6.7zM438.1 403.4c-1.5.8-2 1.6-1.3 2 1 .6 6.2-2 6.2-3 0-.8-2.6-.3-4.9 1zM232.6 408.5c-.9 2.5 1.3 6.9 4.9 9.3 6.3 4.4 7.6 0 1.9-6.6-3.7-4.4-5.8-5.2-6.8-2.7zM495.5 408c-.4.6-2.3.7-4.7.4-3.2-.6-4-.4-3.6.7.9 2.7 10.8 1.7 10.8-1.1 0-1.3-1.7-1.3-2.5 0z"/><path d="M137.5 410c-.8 1.3-.1 2.4 1.4 1.9.6-.3.7-1 .2-1.8-.6-1-1-1-1.6-.1zM460.5 411.1c-.8 1.2.6 1.6 6.8 1.8 4.5.2 6.3.7 8.4 2.7 1.4 1.3 3.2 2.4 3.9 2.4 2 0 1.7 1.7-.3 2.9-1.4.8-.7 1.1 3.5 1.7 5.5.7 7.4 2 5.1 3.5-1.2.8-1.2 1.1.1 1.9 1 .6 2.2.4 3.7-.6 2.3-1.5 2.7-1.2 2.4 1.8-.1 1 .3 1.8.8 1.8.6 0 1.1-.4 1.1-.9s.8-1.2 1.8-1.5c.9-.3 2.3-1.5 3-2.7 1.3-2 1.2-2.1-.8-1.6-1.7.4-2 .3-1.1-.6.6-.6 1.1-1.4 1.1-1.8 0-.9-4.6-2.6-8.8-3.3-1.9-.3-4.1-1.5-5.1-2.7-2.6-3.2-11.6-6-18.9-5.8-3.4.1-6.5.5-6.7 1zM413.4 412.5c-1.3 3.2 3.2 4.9 5.5 2.2.8-1.1.5-1.6-1.5-2.5-3.2-1.5-3.3-1.5-4 .3zM497.6 411.9c-5.5.7-7.7 3.1-2.7 3.1 1.6 0 3.3.4 3.6 1 1 1.5 5.5 1.2 6.1-.5.7-1.6 4.4-2.1 4.4-.5 0 .5.7.7 1.5.4 1.2-.5 1-1-.9-2.5-2.5-1.9-3.5-2-12-1zM442.1 414.1c-3.1 2.9-1.5 3.5 4.5 1.9 4.9-1.4 5.4-3.3.8-3.8-1.9-.2-3.7.5-5.3 1.9z"/><path d="M455.2 413.9c-2.1 1.3-1 4.5 1.8 5.2 4.2.9 9 3.1 9 4 0 .4-3.1.6-7 .3-8-.6-9.7 1-2 2 2.7.4 5.2 1.1 5.5 1.6 1 1.6 3.5 1.2 3.5-.5 0-.8.7-1.5 1.5-1.5.9 0 1.5.9 1.5 2.5 0 2.2.4 2.5 4 2.5 2.9 0 4 .4 4 1.5 0 .8.5 1.5 1 1.5.6 0 1 .6 1 1.4 0 1.1.6 1 3.5-.3 4-1.9 4.5-3 1-2.3-1.8.3-2.5 0-2.5-1.1 0-.8-1.6-2.5-3.5-3.7-1.9-1.2-3.5-3-3.5-4 0-1.3-1-2-3.8-2.5-4.7-.8-7.8-2.5-4.5-2.5 1.2 0 2.5-.5 2.8-1 .6-1.1-.5-1.3-4.2-1-1.3.1-3.3-.6-4.5-1.4-2.6-1.8-2.8-1.9-4.6-.7zM516.8 415.7c.7.3 1.6.2 1.9-.1.4-.3-.2-.6-1.3-.5-1.1 0-1.4.3-.6.6zM138.6 420.2c1.3 2.3 3.7 4.8 4.6 4.8 1.5 0 .9-2.6-1-4.3-2.2-2-4.6-2.3-3.6-.5zM104 421c0 .5.5 1 1.1 1 .5 0 .7-.5.4-1-.3-.6-.8-1-1.1-1-.2 0-.4.4-.4 1zM418 421c-2.3.7-1.2 1.4 1.6 1.1.6-.1 1.6 1 2.2 2.4.8 1.7 2 2.5 3.7 2.5 1.4 0 2.5-.5 2.5-1.1 0-.7 1-.9 2.5-.7 1.4.3 2.5.3 2.5 0 0-1.2-4.5-4.2-6.4-4.2-1.2 0-3-.2-4.1-.4-1.1-.3-3.1-.1-4.5.4zM524.8 421.7c2.9 1.2 11.2.7 11.2-.8 0-.4-3.2-.7-7.1-.6-6.4.2-6.8.3-4.1 1.4zM7.2 422.2c-.7.7-.8 1.7-.3 2.7.5.9 1 3.3 1.2 5.3.3 3-.2 4.2-2.4 6.2-1.6 1.4-3.5 2.6-4.3 2.6-.9 0-1.4 1-1.4 3 0 3.5.1 3.5 4.3 1.4 4.5-2.3 7.7-5.4 7.7-7.5 0-1 .8-2.6 1.9-3.6 1-1 2.2-2.8 2.5-4 .6-1.8.2-2.4-1.8-2.9-1.4-.3-2.4-1-2.3-1.6.3-1.5-3.9-2.8-5.1-1.6zM117 426c1.1 2 2.2 2.5 3.3 1.4 1.1-1.1-.5-3.4-2.4-3.4-1.7 0-1.8.3-.9 2zM190.2 427.5c2.1 1.9 4.7 3.5 5.9 3.5 3.5 0 1.5-2.3-4.2-4.7l-5.4-2.3 3.7 3.5zM407 426.2c0 2.1 10.1 5 11.8 3.4 1.1-1.1-2.1-3.5-4.6-3.4-1.5.1-3.7-.2-5-.6-1.5-.5-2.2-.3-2.2.6zM502.3 427.6c-2.5 1.1-1.2 2.5 2 2.2 1.7-.2 3.2-.8 3.2-1.3 0-1.1-3.3-1.7-5.2-.9zM444.3 429.5c3.3 1.9 3.4 3.1.6 4-1.7.6-1.9.9-.8 1.6.8.5 2.6.9 4.1.9 1.5 0 3 .4 3.3 1 .8 1.3 2.7 1.3 6.2-.1l2.8-1.1-4-1.2c-2.9-.8-4.1-1.8-4.5-3.6-.5-2.2-1.2-2.5-5.5-2.7-5-.3-5-.3-2.2 1.2zM125.5 432c.6 2.8.5 3-2.4 3-2.4 0-3.4.6-4.1 2.4-.5 1.3-1.5 2.6-2.2 2.9-1 .4-.9.8.3 2.2 1.4 1.4 2 1.5 3.9.5 1.8-1 2.8-.9 4.7.1 2.2 1.2 6 6.6 5.1 7.4-.2.1-1.3.8-2.5 1.4-4 2-2.9 4.1 2.2 4.1 4.7 0 5.3.7 3.3 3.9-.9 1.5-.9 2.5 0 4.5 1.3 2.9 3.7 3.3 6.9 1.1 2.5-1.7 2.8-6.8.6-8.6-.7-.6-1.3-1.8-1.3-2.5 0-.8-.4-2.2-.9-3.2-.5-.9-1.3-3.5-1.8-5.7-.7-3.4-1.2-4-3.6-4.3-2.1-.3-2.7-.8-2.6-2.5.5-5.9-1.3-9.7-4.8-9.7-1.1 0-1.3.7-.8 3zM463 433c2.9 2.3 3 2.3 5 1 1.3-.9 1.3-1.1 0-2-.8-.5-2.8-1-4.5-1h-3l2.5 2zM500 431.8c-.8.2-2.2 1.3-3 2.4-1.3 1.6-2 1.7-4.4.9-1.9-.8-3.3-.8-4.7-.1-2.4 1.3-2.4 3.1 0 5.2 1 .8 2.1 2.2 2.4 2.9.3 1.1 1 .9 2.6-.8 2.4-2.6 4.8-2.1 5.3 1 .2 1.5.9 2.1 2.2 1.9 1.2-.2 1.7.1 1.4 1-.8 2 1 5.8 2.7 5.8.8 0 2.3-.4 3.3-.9.9-.5 2.5-1.2 3.5-1.5 2.6-.8 2-2.4-1-2.9-2.6-.4-2.7-.5-.6-1.2 1.1-.4 2.4-1.6 2.6-2.7.5-1.8.2-2-2.3-1.5-1.9.4-3 .2-3.4-.8-.3-.9-1.8-1.5-3.5-1.5-3.7 0-4.9-3.3-1.8-5.3 2.2-1.4 1.3-2.8-1.3-1.9zM146.5 433c.3.5.8 1 1.1 1 .2 0 .4-.5.4-1 0-.6-.5-1-1.1-1-.5 0-.7.4-.4 1zM420.5 433c-.3.5.1 1 1 1s1.3-.5 1-1c-.3-.6-.8-1-1-1-.2 0-.7.4-1 1zM424.8 434.5c-3.2 4.4-2.9 4.7 9.5 9 8.1 2.8 12.7 2.8 12.7-.1 0-.8-.6-1.4-1.2-1.3-2.2.4-8.8-1.3-8.8-2.2 0-.5.5-.9 1-.9 2 0 2.2-3.1.5-5-1.4-1.5-3.1-2-6.9-2-4.2.1-5.4.5-6.8 2.5zM187 434.7c0 1.1 7.6 7.3 8.8 7.3.5 0 1.5.7 2.2 1.5 1.5 1.9 3 1.9 3 .2 0-1.4-5.8-6.4-9.7-8.5-2.5-1.4-4.3-1.5-4.3-.5zM153 437.8c0 1.2 1.9 2.6 2.6 1.9.2-.2-.2-1-1.1-1.7-.9-.8-1.5-.8-1.5-.2zM455.3 443c-1.1 2.8-1 3 1.3 3 1.5 0 2.4-.6 2.4-1.5 0-.8.7-1.5 1.6-1.5 1.4 0 1.4-.3.4-1.5-2-2.4-4.5-1.8-5.7 1.5zM469 441.3c-4.1 1.4-4.7 4.1-1 4.5 2.9.3 7.6-3 6.6-4.7-.9-1.3-1.1-1.3-5.6.2zM479.8 441.1c-2.5 1.4-2.2 3.7.5 4.1 1.2.2 2.1.9 2 1.6-.4 1.8 1.4 1.5 2.1-.4.9-2.5.7-3.4-.9-3.4-.9 0-1.2-.6-.9-1.5.7-1.7-.3-1.9-2.8-.4zM518.2 442.2c-1.6 1.6-1.5 2.8.3 2.8.8 0 1.5-.9 1.5-2 0-2.3-.2-2.4-1.8-.8zM19.7 442.7c-.9.9-.9 4.3.1 4.3 1.1 0 3.2-3.7 2.5-4.4-.8-.8-1.8-.8-2.6.1zM161.3 442.8c-3.3.3-4.7 2-3.4 4.1.7 1.1 4.4 1.5 9.6 1 1.1-.1 3.8.1 6 .6 3.7.7 3.9.6 2.5-.9-2.2-2.3-10.9-5.2-14.7-4.8zM25.7 449.2c-3 6.7-3.1 7.8-.3 7.8 2.1 0 2.7-.7 3.7-3.9 2-6.7-.7-9.7-3.4-3.9zM522.3 447.5c-.8 2.2.6 3.3 1.7 1.5 1.3-2 1.2-3 0-3-.6 0-1.3.7-1.7 1.5zM52.1 449.4c-2.6 2.8-2.1 4.6 1.4 4.6 2.6 0 3.6-1.8 2.8-4.9-.7-2.7-1.4-2.6-4.2.3zM436.5 447.9c-.7 1.2 3.1 2.5 4.5 1.6.6-.4.8-1.1.5-1.6-.8-1.2-4.2-1.2-5 0zM16.8 449.2c.9.9 1.5.9 2.4 0 .9-.9.7-1.2-1.2-1.2s-2.1.3-1.2 1.2zM147 449.5c0 .8.5 1.5 1 1.5.6 0 1-.7 1-1.5s-.4-1.5-1-1.5c-.5 0-1 .7-1 1.5zM445.5 449c.4.6 1.1.8 1.6.5 1.4-.9 1.1-1.5-.7-1.5-.8 0-1.2.5-.9 1zM460 448.7c-3.8 1.5-2.7 5.3 1.4 5.3 3.4 0 4.7-1.9 2.8-4.1-1.7-2-1.9-2.1-4.2-1.2zM467.5 448.9c-.7 1.2 1.2 2.4 2.5 1.6 1.1-.7.4-2.5-1-2.5-.5 0-1.1.4-1.5.9zM0 450.4c0 .9.5 1.6 1 1.6.6 0 1-.4 1-.9 0-.6-.4-1.3-1-1.6-.5-.3-1 .1-1 .9zM190.7 451.6c-2.2 2.9-2.2 5.3.1 6 .9.3 2.6 1 3.7 1.4 1.1.5 3.9 1.2 6.2 1.5 3.5.6 4.4.3 5.4-1.3.8-1.2 1.9-1.8 2.8-1.4 4.4 1.5-.9-1.6-8.2-4.8l-8.3-3.7-1.7 2.3zM478.3 450.4c.9.7 2.9 1.1 4.3.8 3.4-.6 1.1-2.2-3.1-2.2-2.7.1-2.8.2-1.2 1.4zM74.2 453.7c.2 1.1 1.4 1.9 3.1 2.1 3.1.4 3.6-1.2.8-2.8-2.9-1.5-4.3-1.2-3.9.7zM467.3 453.7c-1.8.2-3.3.8-3.3 1.4 0 1.4 5.4 1.1 7.6-.6 2-1.5 1.9-1.6-4.3-.8zM176 456c2 1.3 4.3 1.3 3.5 0-.3-.6-1.6-1-2.8-1-1.8 0-1.9.2-.7 1zM271.5 458c1 1.1 2.5 2 3.3 2 1.2 0 1.2-.4-.3-2-1-1.1-2.5-2-3.3-2-1.2 0-1.2.4.3 2zM61.1 458.9c-.8.5-2.9.7-4.8.4-2.3-.4-3.3-.2-3.3.8 0 .7-1.1 2.4-2.3 3.8-1.3 1.5-3 4.1-3.7 6-1.3 3.2-1.2 3.5 1 5.3 1.3 1.1 3.7 2.2 5.3 2.5 1.5.3 3.5 1.6 4.4 2.9.8 1.3 2.9 2.6 4.7 2.9 1.7.4 4.2 1.5 5.6 2.5 2.1 1.6 2.2 2 .9 2.5-1 .4-1.4 1.4-1.2 2.9.5 2.2.7 2.3 4 1.3 1.9-.6 4.5-2.3 5.8-3.9 1.3-1.5 2.6-2.8 2.8-2.8 1.2 0 1.6 3.4.6 4.6-.9 1.1-.5 1.6 1.5 2.5 2 .9 2.4 1.7 2 3.5-.6 2.2-.3 2.3 3.8 2.1 3.8-.2 4.3.1 4.6 2 .3 1.9 1.2 2.4 5.2 2.9 3.7.5 5.3 1.3 6.5 3 .8 1.3 2.4 2.4 3.5 2.4 4.4 0 3.1 4.9-2 7.2-3.5 1.5-3.5 1.6-1.4 4.6 2.7 3.9 8.6 1.8 9.7-3.5 1.1-5.5 4.1-8 10.3-8.6 7-.7 8.5 0 5.3 2.5l-2.4 1.8 2.7 2.4c1.4 1.3 2.8 3.2 3 4.2.2 1.1 1.3 2 2.6 2.2 1.7.3 2.2 1 2.2 3.2 0 1.6-.4 3.2-1 3.5-.5.3-.7 1.8-.4 3.4.5 2.3.2 2.9-1.7 3.4-1.3.3-2.9.1-3.6-.5-.9-.7-1.4-.6-1.9.6-.9 2.3-2.3 1-1.7-1.5.5-1.7.2-2-1.3-1.7-1.3.2-2.1 1.5-2.5 4.1-.6 4.1-.4 4.7 2.1 4.7 1 0 2.3.7 3 1.5 1.7 2 4.4.4 6-3.4.7-1.8 1.7-2.8 2.3-2.4 2.5 1.5 5.3.9 9.6-2.2 4.6-3.2 6.1-6.2 6.4-13 .1-1.7.5-3.5.9-4.1.4-.6-.2-3-1.4-5.2-1.7-2.9-3.1-4.2-5.3-4.7-1.6-.3-5-1-7.5-1.4-5.4-1.1-12.6-3.4-13.6-4.3-.4-.4-.1-1.4.6-2.3.9-1 1.7-1.2 3-.5 1.8 1 3 .4 3-1.4-.1-1.7-4.9-4.8-6.1-4-.7.4-2.7.8-4.6.9-2.8.2-3.7-.3-4.9-2.6-1.7-3.4-4.8-5.2-7.4-4.4-1.1.3-3-.1-4.4-1-1.4-.9-3.4-1.4-4.4-1.1-1.4.5-2.1.1-2.5-1.4-.5-1.9-1-2.1-5-1.5-2.9.5-4.7.3-5.1-.4-.4-.6-1.8-.8-3.1-.5-1.9.5-2.3.2-2.4-1.8-.2-7.2-.6-8.3-2.9-8.6-2.8-.4-10.2 4.2-10.2 6.3 0 2.6-2.4 1.6-4.3-1.6-1.1-2-2.2-2.9-3.2-2.5-2.5.9-1.7-.7 2-4.3 3.9-3.7 4.3-5.6 1.9-8.9-1.6-2.4-3.1-2.7-5.3-1.3zM279 461.9c0 .5.9 1.1 2 1.4 2.4.6 2.7-.8.4-1.7-2.1-.8-2.4-.8-2.4.3zM183.8 463.7c.7.3 1.6.2 1.9-.1.4-.3-.2-.6-1.3-.5-1.1 0-1.4.3-.6.6zM299.6 463.9c-.4.5-.2 1.2.3 1.5.5.4 1.2.2 1.5-.3.4-.5.2-1.2-.3-1.5-.5-.4-1.2-.2-1.5.3zM493.4 466.6c-1.8 1.4-1.8 1.5.4.4 1.2-.6 2.2-1.3 2.2-1.5 0-.8-.5-.6-2.6 1.1zM132.2 468.2c-.7.7-1.2 2.1-1.2 3.2 0 1.2-.9 3.2-2 4.6-2.4 3-2.5 4.6-.4 5.8.8.5 2.1 2 2.7 3.3 1.4 2.7 5.7 3.9 5.7 1.6 0-.8-.9-2.6-2-4-2.5-3.1-2.5-3.2.2-5.7 1.9-1.7 2-2.5 1.2-5.7-1-4-2.3-5-4.2-3.1zM100 472.6c0 .8.5 1.2 1 .9.6-.4.8-1.1.5-1.6-.9-1.4-1.5-1.1-1.5.7zM502.8 474.8c-1.6.9-2.8 2-2.8 2.5 0 1.3 8.4-1.5 9.5-3.2 1-1.7-3.7-1.2-6.7.7zM117.2 478.1c.4 2.9 2.6 3.6 2.4.8 0-1.2-.7-2.4-1.4-2.7-.9-.3-1.3.3-1 1.9zM489.8 480.1c-3.1 1.7-1.9 3 1.2 1.4 1.7-.9 3-1.8 3-2 0-.8-2.4-.5-4.2.6zM249.7 480.7c-.4.3-.7 1.3-.7 2.2.1 1.3.3 1.3 1.1-.2 1.1-1.9.8-3.3-.4-2zM55.2 485.7c-.6.2-1 .9-.7 1.3.7 1.1 3.5.2 3.5-1.1 0-1-.8-1-2.8-.2zM37.7 486.8c-1.5.2-3.1 1.1-3.6 2-.5 1-2.3 1.9-4.2 2-4.1.3-5 1.1-2.1 1.9 3.1.8 2.7 3.9-.8 6-3.5 2-3.4 3.8.1 3.9 1.3.1 4.2.4 6.4.8 3.3.6 4.6.3 6.7-1.3 1.4-1.2 2.9-2.1 3.2-2.1 1 0-1.7 4.2-4.8 7.7-2.9 3.2-2.8 5.3.2 5.3 3.3 0 5.9-2.8 6.6-7.2.4-2.3 1.1-4.8 1.7-5.4.7-.9.4-1.9-1.1-3.4-2.4-2.4-2.3-2.5 3.4-6.3 2.6-1.7 3.5-2.8 2.5-3.1-2.3-.7-11.2-1.3-14.2-.8zM136 491.4c0 .8 1.4 1.9 3 2.5 1.7.5 3 1.4 3 2 0 1.1 3.9.9 5.8-.3 1.9-1.1-.6-3.8-2.8-3.1-.9.3-2.3-.1-3-1-1.6-1.9-6-2-6-.1zM173 492c0 .5.5 1 1.1 1 .5 0 .7-.5.4-1-.3-.6-.8-1-1.1-1-.2 0-.4.4-.4 1zM204.5 495.2c.2 3.3.8 4.6 2.6 5.5 4.2 2.2 5.2 1.7 4.6-2.5-.4-3.7-.3-3.9 2-3.4 1.8.3 2.4.1 2.1-.8-.2-.7-2.2-1.3-4.3-1.4-2.2-.1-4.8-.6-5.7-1-1.4-.7-1.6-.2-1.3 3.6zM225.1 492.9c-1.8 1.2-.5 3.1 2 3.1 1.4 0 1.9-.6 1.7-1.7-.4-2-1.8-2.6-3.7-1.4zM219 494.5c-1 1.3-1.1 1.8-.1 2.8 1 .9 1.5.8 2.6-.7 2.3-3.1-.1-5-2.5-2.1zM50.5 508c-.3.5.1 1 .9 1 .9 0 1.6-.5 1.6-1 0-.6-.4-1-.9-1-.6 0-1.3.4-1.6 1z"/><path d="M92.7 508.8c-2.7 3-2.2 4.3 1.3 3.1 1.9-.7 3-1.8 3-3 0-2.4-2.2-2.4-4.3-.1zM66.3 512.6c-2.7 2.9-2.8 3.4-.9 3.4 1.2 0 4.6-4 4.6-5.5 0-1.1-1.6-.2-3.7 2.1zM95.6 514.5c-.3.9 0 1.5.8 1.5s1.6-.7 2-1.5c.3-.9 0-1.5-.8-1.5s-1.6.7-2 1.5zM73.3 516c-1.3.5-2.3 1.4-2.3 2 0 1.5 1.2 1.2 4-1 2.7-2.1 2-2.5-1.7-1zM126 521c0 .5.4 1 .9 1s1.5 1.6 2.1 3.6c.7 1.9 1.7 3.3 2.3 3.1 2-.6 1.8-2.5-.8-5.6-2.7-3.1-4.5-4-4.5-2.1zM90 523.8c-1.9 1.4-3.6 3-3.8 3.4-.2.5-1 .8-1.7.8-1.3 0-4.5 4.1-4.5 5.8 0 2.1 5.2-.3 8-3.7 1.6-2 3.7-4.4 4.5-5.4 2.8-3.2 1.1-3.8-2.5-.9zM0 538.3v15.3l4.3 4c2.3 2.2 5.5 4.6 7 5.2 1.5.7 2.6 1.6 2.2 2.1-2.2 3.7 36.2 28.9 55 36.1 10.9 4.1 12.9 4.8 21.5 7.1 4.7 1.2 9.4 3 10.5 3.9 1.1 1 3.7 2.1 5.7 2.4 4.9.9 6.5 3.6 4.4 7.6l-1.4 3h4.4c5 0 4.7.5 6.4-10 .7-4.1 2-8.6 2.8-10 1.6-2.6 2.3-6.8 1.1-7.5-.3-.3-.7-2.9-.8-6-.1-3.1-.7-6.5-1.3-7.5-.9-1.4-.9-2.5 0-4.6.7-1.4 1-2.9.8-3.2-.3-.2-2.4 0-4.8.6-2.3.6-4.4.9-4.6.7-.3-.2.7-1.8 2.2-3.5 3.6-4.4 3.3-5.1-1.6-3.4-2.4.8-9.4 2.9-15.7 4.5-14.8 3.8-15.5 4.2-11.3 6.6 7.9 4.3 9.3 5.4 8.6 6.4-1.1 1.8-9.5.2-12.2-2.4-4.2-3.9-6.3-11.7-3.1-11.7 2.3 0 .5-4-3.6-7.8-2.6-2.5-4.2-4.7-3.9-5.6.4-1-1.1-2-5.1-3.5-10.3-3.9-11.5-4.8-11.3-8.3.3-3.5 1.9-2.7-15.2-7.5-3.6-1-8.4-1.7-10.7-1.7-3 .1-4.3-.3-4.3-1.3 0-.7-.8-1.3-1.9-1.3-1 0-4.3-.7-7.2-1.6-3-.9-6-1.8-6.8-2-1.1-.4-1-.8.4-2.4 1.9-2.1 1.3-4-1.3-4-1 0-2.3-.9-3-2-.7-1.1-2.3-2-3.7-2H0v15.3zM116.5 526c-.8 1.6-2.4 3.4-3.5 4-1.1.6-2.2 2.1-2.6 3.5-.7 2.9-3.4 4.2-3.4 1.6 0-3.7-3.1-3.3-8 1.1-4 3.6-4.8 4.9-4.9 8-.1 4.2 1.4 5.2 4.7 3 1.9-1.2 2.5-1.3 3.2-.3 1 1.7 7.6-1.3 9.1-4 .5-1.1 1.5-1.9 2.3-1.9 1.6 0 8-14.5 7.2-16.5-.9-2.3-2.4-1.8-4.1 1.5zm-11.3 14.2c-.7.7-1.2.8-1.2.2 0-1.4 1.2-2.6 1.9-1.9.2.3-.1 1.1-.7 1.7zM105.5 528c-.3.5-.2 1 .4 1 .5 0 1.3-.5 1.6-1 .3-.6.2-1-.4-1-.5 0-1.3.4-1.6 1zM220 535.5c-1.6 1.9-.9 5.9 1.3 6.3 1.3.3 1.7-.4 1.7-3.2 0-4-1.2-5.3-3-3.1zM143.6 543.5c-.3.8-.1 1.5.4 1.5.6 0 1-.7 1-1.5s-.2-1.5-.4-1.5-.6.7-1 1.5zM138 555.5c-1.9 2.3-.7 3.9 1.3 1.7 1-1.1 1.4-2.3.9-2.6-.5-.3-1.5.1-2.2.9zM140.2 563.6c1 1 2.3 1.4 3.4 1 1.6-.6 1.6-.8.4-1.6-.8-.6-2.4-1-3.5-1-1.8 0-1.8.1-.3 1.6zM134.5 565c.3.5 1 1 1.6 1 .5 0 .9-.5.9-1 0-.6-.7-1-1.6-1-.8 0-1.2.4-.9 1zM180.6 565.8c-.8 1.3.8 6.5 2.2 7 1.7.5 1.5-5.3-.2-6.7-.8-.7-1.7-.8-2-.3zM133.7 572.2c-.9.7-1.8 2.4-1.9 3.8-.2 2 .1 2.5 2 2.5s2.7-.9 3.7-3.8c1.1-3.3 1.1-3.7-.4-3.7-1 0-2.5.6-3.4 1.2zM290.2 608.1c.2.7 1 1.5 1.7 1.7.8.3 1.2-.1.9-.9-.2-.7-1-1.5-1.7-1.7-.8-.3-1.2.1-.9.9zM298.3 610.6c-1.5 1.6-1.6 2.4-.4 2.4.8 0 2.4-3 1.9-3.5-.2-.2-.9.3-1.5 1.1zM7.7 613.1c-1.1 1.2-1.6 2.8-1.2 3.7.5 1.2.9 1.3 1.2.4.3-.6 1.3-1.2 2.3-1.2 2.5 0 3.5-1.7 2-3.5-1.6-2-2.2-1.9-4.3.6zM270.5 611.9c-.3.5-.1 1.2.5 1.6.5.3 1-.1 1-.9 0-1.8-.6-2.1-1.5-.7zM24.7 619.8c-1.2.2-1.6.9-1.3 1.9.3.8.6 1.9.6 2.4 0 1.8 2.9.8 3.5-1.2.8-2.5-.3-3.7-2.8-3.1zM281.5 620.3c-.4 1-.5 2.1-.1 2.4 1 1 1.8-.4 1.3-2.4-.4-1.7-.4-1.7-1.2 0z"/></svg>